<?xml version="1.0" encoding="UTF-8"?>
<svg version="1.1" xmlns="http://www.w3.org/2000/svg" width="2048" height="2048">
<path d="M0 0 C0.76441406 0.06058594 1.52882813 0.12117188 2.31640625 0.18359375 C15.13524025 1.89417951 27.08432409 10.23920137 37 18 C38.41596587 19.02180516 39.83257902 20.04271429 41.25 21.0625 C45.20184043 24.05850911 48.65439554 27.34352079 52 31 C52.60328125 31.63679688 53.2065625 32.27359375 53.828125 32.9296875 C73.2452983 55.10946676 79.39939437 86.1602998 85.56640625 114.01953125 C90.39054359 135.800058 96.65172645 153.85545703 110.44140625 171.66015625 C113.61265298 175.75597952 116.60773879 179.97776768 119.625 184.1875 C123.41694444 189.46418981 127.25096297 194.67758624 131.2890625 199.76953125 C133.89733088 203.16980807 136.3343178 206.6915761 138.79956055 210.19604492 C143.10320894 216.25450049 147.70124844 222.07742216 152.35375977 227.87084961 C157.66890537 234.57761325 157.66890537 234.57761325 159 239 C159.66 239 160.32 239 161 239 C162.41706502 240.54888502 163.75809496 242.16761534 165.0625 243.8125 C165.86945312 244.82183594 166.67640625 245.83117187 167.5078125 246.87109375 C168.13091309 247.65589111 168.13091309 247.65589111 168.76660156 248.45654297 C170.62833174 250.78628528 172.53601967 253.07765989 174.4375 255.375 C184.43875585 267.62784748 193.30263371 280.10388877 201.12890625 293.8828125 C205.5046842 301.17273067 210.436336 308.12005211 215.25 315.125 C224.04038981 327.95038457 232.67991433 340.86386474 241 354 C241.5671875 354.88300781 242.134375 355.76601563 242.71875 356.67578125 C245.30582024 360.8137737 247.42275234 364.88273222 249.203125 369.4296875 C252.13163794 376.56344034 255.77907719 383.26007661 259.5 390 C263.66550681 397.54522419 267.56778636 405.05546924 270.77099609 413.07080078 C272.05252812 416.12519516 273.49669442 419.04514802 275.0078125 421.9921875 C278.01592427 427.90269465 280.48258181 433.94426163 282.875 440.125 C285.75439877 447.45860384 288.7049223 454.71855571 292 461.875 C299.56955841 478.45418858 305.33848306 495.87912489 311.32763672 513.08007812 C312.00332049 515.00948161 312.68943349 516.93485932 313.37890625 518.859375 C320.00427216 537.38577672 326.10278484 556.09215827 332.04370117 574.84765625 C334.30491338 581.94289276 336.70940737 588.9778619 339.1875 596 C342.44408073 605.25426706 345.41591754 614.53606396 348 624 C348.34675781 625.25167969 348.69351563 626.50335937 349.05078125 627.79296875 C351.51364245 637.12141214 353.22059215 646.51124015 354.80859375 656.0234375 C355.68255629 661.2274524 356.62584942 666.41521778 357.59765625 671.6015625 C363.65538882 704.06790026 368.00023179 736.70027432 371.8125 769.5 C371.91782043 770.39254486 372.02314087 771.28508972 372.13165283 772.2046814 C372.43492547 774.79192542 372.728646 777.38008688 373.01953125 779.96875 C373.10466476 780.6881929 373.18979828 781.4076358 373.2775116 782.14888 C375.13402835 799.10777751 375.17213962 816.21535705 375.203125 833.25390625 C375.20595238 834.32823347 375.20877975 835.40256069 375.21169281 836.50944328 C375.22655634 842.20380763 375.23586456 847.89814753 375.24023438 853.5925293 C375.24460037 858.21240211 375.25843811 862.83208623 375.28125 867.4519043 C375.41197218 894.4655922 375.08051612 921.14095448 372 948 C371.87519257 949.10068817 371.75038513 950.20137634 371.62179565 951.3354187 C368.95525548 974.44159157 363.42316516 996.96328574 357.85546875 1019.51367188 C357.05606265 1022.77152552 356.27500624 1026.03314553 355.5 1029.296875 C352.76571502 1040.68942055 349.55290159 1051.81205873 345.88647461 1062.93994141 C343.86483143 1069.1249829 342.10197141 1075.28936121 340.625 1081.625 C338.5336307 1090.49163058 335.85064783 1099.14596175 333.0625 1107.8125 C332.85707581 1108.45672913 332.65165161 1109.10095825 332.44000244 1109.76470947 C329.36904285 1119.36632508 325.84411702 1128.68768338 322 1138 C321.3963562 1139.48318726 321.3963562 1139.48318726 320.78051758 1140.99633789 C314.9024823 1155.33458613 308.03101091 1168.75422194 300 1182 C299.3184082 1183.13187744 299.3184082 1183.13187744 298.62304688 1184.28662109 C293.46572849 1192.81822327 288.04502793 1201.06272593 282 1209 C281.42765625 1209.75410156 280.8553125 1210.50820312 280.265625 1211.28515625 C274.3763405 1218.94392761 268.33633426 1226.49598631 261.8125 1233.625 C257.0549288 1238.84244188 252.59356375 1244.28700217 248.13598633 1249.76025391 C237.49094845 1262.80724124 237.49094845 1262.80724124 231 1268 C229.33572863 1269.79957798 227.74971907 1271.65698955 226.15625 1273.51953125 C223.47217141 1276.60719413 220.71190759 1279.61857129 217.9375 1282.625 C217.44306396 1283.16310303 216.94862793 1283.70120605 216.43920898 1284.25561523 C214.96933104 1285.84670517 213.48867741 1287.42649077 212 1289 C211.46004395 1289.57202148 210.92008789 1290.14404297 210.36376953 1290.73339844 C208.94971958 1292.19591294 207.47880789 1293.60299851 206 1295 C205.34 1295 204.68 1295 204 1295 C203.34 1296.32 202.68 1297.64 202 1299 C201.34 1299 200.68 1299 200 1299 C200 1299.66 200 1300.32 200 1301 C198.56640625 1302.41015625 198.56640625 1302.41015625 196.5625 1304.0625 C193.47013306 1306.67911818 190.61348463 1309.38702716 187.8125 1312.3125 C183.30643952 1316.88060606 178.35494332 1320.70399339 173.23828125 1324.54296875 C170.35207817 1326.71164025 167.57690562 1328.98971986 164.8125 1331.3125 C144.82455826 1347.70030814 123.41305718 1361.32288435 99 1370 C97.62491932 1370.5115019 96.24991618 1371.02321232 94.875 1371.53515625 C73.81077415 1379.14573296 51.05954991 1384.28268344 29 1388 C27.95408691 1388.18046875 26.90817383 1388.3609375 25.83056641 1388.546875 C11.70842798 1390.92297446 -2.19096252 1392.37762913 -16.5 1392.375 C-17.77601074 1392.37661133 -19.05202148 1392.37822266 -20.36669922 1392.37988281 C-25.79833994 1392.31361635 -29.99227601 1392.21727378 -35 1390 C-37.05313085 1389.53937967 -39.11766308 1389.12853993 -41.1875 1388.75 C-56.66138108 1385.79219592 -72.04954362 1382.25250101 -87.16772461 1377.8203125 C-93.49941293 1376.01965575 -99.90773989 1374.83114889 -106.375 1373.625 C-117.69626205 1371.48014481 -128.30855829 1368.2720216 -139 1364 C-140.35569092 1363.459198 -140.35569092 1363.459198 -141.73876953 1362.9074707 C-149.73063344 1359.64963661 -157.49671552 1355.97254108 -165.25 1352.1875 C-166.20876038 1351.71988754 -166.20876038 1351.71988754 -167.18688965 1351.24282837 C-172.45069291 1348.67504537 -172.45069291 1348.67504537 -174.88433838 1347.48417664 C-178.09271061 1345.91697285 -181.31106698 1344.38194747 -184.5625 1342.90625 C-204.41538137 1333.7643471 -222.05673143 1319.638468 -239 1306 C-240.31465294 1304.94995565 -241.62974938 1303.90046629 -242.9453125 1302.8515625 C-244.75074017 1301.41088828 -246.55531549 1299.969344 -248.35400391 1298.52026367 C-248.89202637 1298.08689697 -249.43004883 1297.65353027 -249.984375 1297.20703125 C-250.58040527 1296.72500244 -251.17643555 1296.24297363 -251.79052734 1295.74633789 C-253.51189399 1294.38579251 -255.25669577 1293.05487917 -257.01025391 1291.73608398 C-265.97473483 1284.950611 -273.97864313 1277.45785604 -281.87353516 1269.46264648 C-283.91255278 1267.39950289 -285.96514856 1265.35056827 -288.01953125 1263.30273438 C-289.32371842 1261.99298536 -290.62713499 1260.68246845 -291.9296875 1259.37109375 C-292.54198212 1258.75971054 -293.15427673 1258.14832733 -293.78512573 1257.51841736 C-298 1253.23121015 -298 1253.23121015 -298 1251 C-298.84498047 1250.65388672 -298.84498047 1250.65388672 -299.70703125 1250.30078125 C-307.63726733 1245.80202722 -313.51457402 1236.08135239 -318.45703125 1228.70703125 C-320.89712219 1225.09498277 -323.49822329 1221.61428728 -326.11132812 1218.1262207 C-332.46752319 1209.63798106 -338.33549137 1201.01386164 -343.81445312 1191.93847656 C-345.01197037 1189.98042736 -346.24181999 1188.04692777 -347.484375 1186.1171875 C-353.46767641 1176.79769298 -358.71411304 1167.21073049 -363.77539062 1157.36376953 C-365.36997439 1154.28586683 -367.00801628 1151.2321874 -368.64648438 1148.17749023 C-371.86972304 1142.1582135 -374.96917284 1136.13647117 -377.7109375 1129.87890625 C-378.97447293 1127.05701045 -380.32467327 1124.28552553 -381.68432617 1121.5090332 C-396.91892505 1090.04990167 -406.81520443 1055.98949562 -415.0625 1022.125 C-415.29242645 1021.18200043 -415.52235291 1020.23900085 -415.75924683 1019.26742554 C-420.48241675 999.77456873 -423.71640797 980.40781197 -426.125 960.5 C-426.3914609 958.32806776 -426.65838522 956.15619231 -426.92578125 953.984375 C-427.52263941 949.13048031 -428.11785633 944.27640927 -428.69953918 939.42066956 C-428.9616495 937.30897171 -429.25873498 935.2016738 -429.56176758 933.09545898 C-430.23789555 927.6695961 -430.234784 922.21471011 -430.31640625 916.75390625 C-430.3373233 915.56649338 -430.35824036 914.37908051 -430.37979126 913.15568542 C-430.44594156 909.29135554 -430.50494804 905.42696697 -430.5625 901.5625 C-430.58313785 900.22798536 -430.60385966 898.89347201 -430.62466431 897.55895996 C-430.76684412 888.37283627 -430.88962208 879.18656571 -431 870 C-431.01309204 868.92554626 -431.02618408 867.85109253 -431.03967285 866.74407959 C-431.30119556 844.4530885 -431.12683582 822.3347246 -429.18359375 800.10754395 C-428.98787255 797.86078432 -428.79859338 795.61352703 -428.609375 793.36621094 C-424.46194655 744.73402122 -415.41509349 696.87473929 -400.8125 650.25 C-400.4215918 649.00049561 -400.03068359 647.75099121 -399.62792969 646.46362305 C-398.42771146 642.63950133 -397.21519245 638.81939033 -396 635 C-395.64276855 633.87480957 -395.28553711 632.74961914 -394.91748047 631.59033203 C-389.3630746 614.21175463 -382.99562954 597.20097628 -376.38011169 580.20672607 C-374.68008803 575.81910974 -373.0594446 571.41135398 -371.49609375 566.97265625 C-364.1982945 546.46798027 -354.57775766 527.22742584 -344.86555481 507.77832031 C-341.23335867 500.49867784 -337.72118793 493.17005601 -334.25 485.8125 C-329.95274829 476.77754142 -325.27486997 468.03333818 -320.32128906 459.34423828 C-317.78426716 454.84304015 -315.33791071 450.29202618 -312.875 445.75 C-308.99163834 438.6076723 -305.04924338 431.51121689 -300.98046875 424.47265625 C-299.51834329 421.90888991 -298.08574793 419.33824109 -296.67578125 416.74609375 C-291.27025995 406.82524612 -285.49390587 397.26978691 -279.23583984 387.86328125 C-278.15195712 386.22910643 -277.08438496 384.58413769 -276.01953125 382.9375 C-270.75607805 374.85714541 -264.9988701 367.1574383 -259.26171875 359.41015625 C-253.91967233 352.19439572 -248.90337342 344.88702015 -244.1875 337.25 C-239.45124356 329.579971 -234.32479491 322.26988528 -229 315 C-228.33355469 314.07960938 -227.66710937 313.15921875 -226.98046875 312.2109375 C-224.99440034 309.46846422 -222.99876719 306.73323191 -221 304 C-220.56510254 303.40509766 -220.13020508 302.81019531 -219.68212891 302.19726562 C-216.46147634 297.79322084 -213.2338751 293.39434386 -210 289 C-209.45601562 288.26007813 -208.91203125 287.52015625 -208.3515625 286.7578125 C-201.94427555 278.12834511 -195.2621317 269.6875842 -188.375 261.4375 C-183.53541712 255.54733152 -179.22312474 249.34102814 -175 243 C-174.61279785 242.42314453 -174.2255957 241.84628906 -173.82666016 241.25195312 C-167.12884701 231.2370487 -161.46717746 221.01669986 -157.09765625 209.765625 C-152.34817109 197.79895066 -146.79738614 186.1479293 -141.3515625 174.48828125 C-138.47754377 168.30914098 -135.75390528 162.0927205 -133.16113281 155.79052734 C-131.19792484 151.07238876 -129.07514483 146.42680206 -126.95117188 141.77929688 C-125.17324894 137.83266001 -123.58226234 133.88477704 -122.15625 129.796875 C-119.75577844 123.07847847 -116.68021442 116.72252085 -113.5625 110.3125 C-113.00240234 109.14138672 -112.44230469 107.97027344 -111.86523438 106.76367188 C-109.19242946 101.23405331 -106.46324172 95.87275748 -103.1105957 90.72436523 C-101.36946511 88.02100068 -99.86185999 85.1914071 -98.3125 82.375 C-94.07978478 74.84495366 -89.14486964 67.92672166 -84 61 C-83.23429687 59.95714844 -82.46859375 58.91429687 -81.6796875 57.83984375 C-68.35891415 39.85447903 -53.76062353 22.73213773 -36 9 C-35.27554687 8.32066406 -34.55109375 7.64132812 -33.8046875 6.94140625 C-29.90288108 4.24057367 -25.9564207 3.32800634 -21.375 2.25 C-20.4792627 2.034646 -19.58352539 1.81929199 -18.66064453 1.59741211 C-12.34552357 0.15007757 -6.48052236 -0.76558584 0 0 Z M26 33 C26.47566406 33.71349609 26.47566406 33.71349609 26.9609375 34.44140625 C27.98617859 35.97926788 29.00934845 37.51851099 30.03125 39.05859375 C31.45539243 41.18633036 32.89211336 43.30140739 34.34375 45.41015625 C51.78488083 70.89002565 63.08710177 99.25739508 65.97583008 130.14550781 C66.59567605 137.05927477 66.59567605 137.05927477 70 143 C70.99 143.66 71.98 144.32 73 145 C73.2009805 139.56236092 72.49867824 134.83848092 71.2421875 129.55859375 C71.05878311 128.76205383 70.87537872 127.96551392 70.68641663 127.14483643 C70.09135006 124.57359393 69.48424082 122.00541822 68.875 119.4375 C68.56588181 118.12285263 68.56588181 118.12285263 68.2505188 116.78164673 C66.85537754 110.84912299 65.43414809 104.92320052 64 99 C63.56131592 97.1756543 63.56131592 97.1756543 63.11376953 95.31445312 C57.93838085 74.08513409 50.28767478 54.96712699 35 39 C34.48953125 38.43796875 33.9790625 37.8759375 33.453125 37.296875 C31.05849859 34.72486885 29.40960074 33.69335696 26 33 Z M202 328 C204.24092388 335.30769075 207.25922489 341.9920378 210.5625 348.875 C250.02824065 432.44208967 278.90213042 521.92131223 345 863 C345.07778687 863.85885803 345.15557373 864.71771606 345.23571777 865.6026001 C347.3386543 889.01900649 348.51867202 912.44490804 349.35424805 935.93896484 C349.42617458 937.96061536 349.49819345 939.98226259 349.5703125 942.00390625 C349.60451797 942.96310974 349.63872345 943.92231323 349.67396545 944.9105835 C349.96041274 952.62015792 350.41150884 960.30757986 351 968 C351.33 968 351.66 968 352 968 C352.55487731 963.39633065 353.10604626 958.79223644 353.65405273 954.18774414 C353.84025401 952.62740634 354.02739924 951.06718084 354.21557617 949.50708008 C356.27756077 932.40085585 357.24061211 915.47580866 357.5625 898.25 C357.58334656 897.17808411 357.60419312 896.10616821 357.62567139 895.00177002 C358.55198267 846.76122899 359.20305464 798.23674004 351.80859375 750.41796875 C350.97465154 744.98652067 350.29844343 739.53864167 349.61962891 734.0859375 C346.48384435 708.97489671 342.35511493 684.09376835 337.41088867 659.27856445 C337.26755096 658.55795334 337.12421326 657.83734222 336.97653198 657.09489441 C336.69403709 655.67637557 336.41037703 654.25808825 336.1255188 652.84004211 C335.35431605 648.9594536 334.71102442 645.08446474 334.15625 641.16796875 C332.87546321 633.27705949 330.3783782 625.70563763 327.99682617 618.09130859 C327.18998694 615.5079627 326.39787266 612.92043263 325.60742188 610.33203125 C323.10456729 602.21140106 320.44632633 594.30740701 317.05249023 586.50585938 C315.54289085 582.91167518 314.47761766 579.25144511 313.4375 575.5 C310.59523635 565.69004645 307.41892749 555.99950447 304.1875 546.3125 C303.92815674 545.53473206 303.66881348 544.75696411 303.40161133 543.95562744 C299.70546069 532.89328153 295.89146665 521.88206713 291.85424805 510.9387207 C290.24999999 506.57539764 288.73675573 502.22406901 287.4296875 497.76171875 C286.24016747 493.7072423 284.82458187 489.83798794 283.1875 485.9375 C282.76440552 484.92417603 282.76440552 484.92417603 282.33276367 483.89038086 C281.22937026 481.25702297 280.11528658 478.62834457 279 476 C278.45735385 474.72037884 277.91471084 473.44075635 277.37207031 472.16113281 C276.77152197 470.74542676 276.17093481 469.32973717 275.5703125 467.9140625 C275.26392349 467.19189041 274.95753448 466.46971832 274.64186096 465.72566223 C273.08897805 462.06655466 271.53415446 458.40829465 269.9753418 454.75170898 C265.06841415 443.22979901 265.06841415 443.22979901 262.7734375 437.4296875 C261.24789222 433.57497944 259.58440783 429.81194448 257.8125 426.0625 C257.52060791 425.44479736 257.22871582 424.82709473 256.92797852 424.19067383 C256.29378257 422.84898457 255.6585784 421.50777149 255.02246094 420.16699219 C253.92338461 417.8376222 252.83991348 415.5013636 251.7578125 413.1640625 C248.24914551 405.61935447 244.75174258 398.22384023 240.32421875 391.1640625 C237.27247123 386.17684089 234.83063236 380.86003064 232.44921875 375.52734375 C227.10302731 363.58329181 220.29026349 353.11317278 212.69921875 342.4609375 C210.1556979 338.77721765 207.81933254 334.96838468 205.48046875 331.15234375 C204.17822234 328.88765955 204.17822234 328.88765955 202 328 Z M-413 883 C-413.0499526 888.74339575 -413.08597755 894.48666119 -413.10986328 900.23022461 C-413.11983541 902.17848925 -413.13341797 904.12673926 -413.15087891 906.07495117 C-413.24586433 916.95637012 -412.9683012 927.26587122 -411 938 C-410.46394402 942.09779891 -410.01546421 946.20476174 -409.5625 950.3125 C-409.13592518 954.15167335 -408.69708249 957.98912924 -408.24783325 961.82571411 C-408.06819181 963.40174097 -407.89566953 964.97858457 -407.72750854 966.55587769 C-406.05869514 982.17424207 -403.21542609 997.19869948 -399.4375 1012.4375 C-399.04473877 1014.04954315 -399.04473877 1014.04954315 -398.64404297 1015.69415283 C-394.09906202 1034.34699474 -388.96363345 1052.75150172 -383 1071 C-382.49146484 1072.5763623 -382.49146484 1072.5763623 -381.97265625 1074.18457031 C-379.88814539 1080.56585015 -377.58171503 1086.80388394 -375 1093 C-374.65501465 1093.83208984 -374.3100293 1094.66417969 -373.95458984 1095.52148438 C-369.3438905 1106.56017747 -364.48315861 1117.36562287 -359 1128 C-358.01956736 1129.94723415 -357.04545151 1131.89752425 -356.07275391 1133.84863281 C-355.39951157 1135.19902223 -354.72470718 1136.54863402 -354.04833984 1137.89746094 C-352.35701851 1141.27036004 -350.68014305 1144.64910672 -349.03125 1148.04296875 C-344.4887329 1157.34683788 -339.4262337 1166.18617368 -334 1175 C-332.97705327 1176.72791725 -331.95596508 1178.45693739 -330.9375 1180.1875 C-324.40847545 1191.01612609 -317.01209343 1201.13717805 -309.484375 1211.28125 C-305.61081163 1216.50822708 -301.83810406 1221.80268538 -298.0859375 1227.1171875 C-294.46112254 1232.12676323 -290.79855146 1236.10816828 -286.11376953 1240.1171875 C-282.65740116 1243.19590232 -279.56269297 1246.59069858 -276.4375 1250 C-267.25877686 1260.02856151 -267.25877686 1260.02856151 -257.125 1269.0625 C-256.20332031 1269.805 -255.28164063 1270.5475 -254.33203125 1271.3125 C-253.81721191 1271.72628906 -253.30239258 1272.14007812 -252.77197266 1272.56640625 C-249.09758673 1275.5391252 -245.45844566 1278.55503059 -241.8125 1281.5625 C-240.31905959 1282.79302843 -238.8255739 1284.02350192 -237.33203125 1285.25390625 C-236.22133364 1286.16924593 -235.11064827 1287.08460045 -234 1288 C-233.34 1287.67 -232.68 1287.34 -232 1287 C-233.9156265 1284.91570199 -235.83246061 1282.83253697 -237.75 1280.75 C-238.28882813 1280.16347656 -238.82765625 1279.57695313 -239.3828125 1278.97265625 C-241.59767766 1276.56871723 -243.81011457 1274.18745545 -246.13671875 1271.890625 C-248.28469682 1269.71112524 -250.15663577 1267.39390796 -252.0625 1265 C-256.33175616 1259.71997623 -260.85568007 1254.75726769 -265.51953125 1249.82421875 C-267.99061822 1247.01068193 -269.98233486 1244.1503182 -272 1241 C-276.3114936 1234.68674152 -280.66863653 1228.41681752 -285.1875 1222.25 C-288.07545743 1218.3061688 -290.83776452 1214.30752622 -293.515625 1210.21875 C-295.05794735 1207.91338395 -296.68205847 1205.68122687 -298.3125 1203.4375 C-302.66681569 1197.25130261 -306.22737383 1190.64544495 -309.87255859 1184.02832031 C-311.29557947 1181.46823858 -312.75836808 1178.93242714 -314.22509766 1176.3972168 C-317.23848263 1171.18660186 -320.09238311 1165.94633923 -322.734375 1160.5390625 C-324.20119617 1157.59636571 -325.74987931 1154.70545992 -327.3125 1151.8125 C-327.87936523 1150.76215576 -328.44623047 1149.71181152 -329.03027344 1148.62963867 C-330.28515019 1146.30900624 -331.55649432 1144.00036311 -332.83984375 1141.69506836 C-338.17408757 1131.97629975 -342.52302551 1122.01616275 -346.6875 1111.75 C-347.95908398 1108.63932703 -349.23497123 1105.53043164 -350.51171875 1102.421875 C-350.81461823 1101.68209915 -351.1175177 1100.9423233 -351.42959595 1100.18013 C-353.49648251 1095.15397119 -355.6935783 1090.20145437 -357.97387695 1085.26806641 C-359.38061002 1082.1587278 -360.57649548 1079.01790587 -361.75 1075.8125 C-362.2574935 1074.43608026 -362.76532892 1073.05978655 -363.2734375 1071.68359375 C-363.54639648 1070.94093262 -363.81935547 1070.19827148 -364.10058594 1069.43310547 C-365.45861494 1065.75934948 -366.84317485 1062.09566993 -368.22460938 1058.43066406 C-370.15965258 1053.29080821 -372.08015416 1048.14554754 -374 1043 C-374.36448242 1042.02595215 -374.72896484 1041.0519043 -375.10449219 1040.04833984 C-380.65130056 1025.18883822 -385.5113952 1010.35782476 -389.26171875 994.9375 C-391.01304181 987.96927281 -393.03648796 981.06428418 -395.19140625 974.2109375 C-398.80769176 962.62910803 -401.15429723 950.89359222 -403.41796875 938.98193359 C-403.93172719 936.34978359 -404.48272769 933.73151993 -405.0625 931.11328125 C-408.53341111 915.24410839 -410.19397637 899.12645533 -412 883 C-412.33 883 -412.66 883 -413 883 Z " fill="#F3BD81" transform="translate(1050,326)"/>
<path d="M0 0 C0.76441406 0.06058594 1.52882813 0.12117188 2.31640625 0.18359375 C15.13524025 1.89417951 27.08432409 10.23920137 37 18 C38.41596587 19.02180516 39.83257902 20.04271429 41.25 21.0625 C45.20184043 24.05850911 48.65439554 27.34352079 52 31 C52.60328125 31.63679688 53.2065625 32.27359375 53.828125 32.9296875 C73.2452983 55.10946676 79.39939437 86.1602998 85.56640625 114.01953125 C90.39054359 135.800058 96.65172645 153.85545703 110.44140625 171.66015625 C113.61265298 175.75597952 116.60773879 179.97776768 119.625 184.1875 C123.41694444 189.46418981 127.25096297 194.67758624 131.2890625 199.76953125 C133.89733088 203.16980807 136.3343178 206.6915761 138.79956055 210.19604492 C143.10320894 216.25450049 147.70124844 222.07742216 152.35375977 227.87084961 C157.66890537 234.57761325 157.66890537 234.57761325 159 239 C159.66 239 160.32 239 161 239 C162.41706502 240.54888502 163.75809496 242.16761534 165.0625 243.8125 C165.86945312 244.82183594 166.67640625 245.83117187 167.5078125 246.87109375 C168.13091309 247.65589111 168.13091309 247.65589111 168.76660156 248.45654297 C170.62833174 250.78628528 172.53601967 253.07765989 174.4375 255.375 C184.43875585 267.62784748 193.30263371 280.10388877 201.12890625 293.8828125 C205.5046842 301.17273067 210.436336 308.12005211 215.25 315.125 C224.04038981 327.95038457 232.67991433 340.86386474 241 354 C241.5671875 354.88300781 242.134375 355.76601563 242.71875 356.67578125 C245.30582024 360.8137737 247.42275234 364.88273222 249.203125 369.4296875 C252.13163794 376.56344034 255.77907719 383.26007661 259.5 390 C263.66550681 397.54522419 267.56778636 405.05546924 270.77099609 413.07080078 C272.05252812 416.12519516 273.49669442 419.04514802 275.0078125 421.9921875 C278.01592427 427.90269465 280.48258181 433.94426163 282.875 440.125 C285.75439877 447.45860384 288.7049223 454.71855571 292 461.875 C299.56955841 478.45418858 305.33848306 495.87912489 311.32763672 513.08007812 C312.00332049 515.00948161 312.68943349 516.93485932 313.37890625 518.859375 C320.00427216 537.38577672 326.10278484 556.09215827 332.04370117 574.84765625 C334.30491338 581.94289276 336.70940737 588.9778619 339.1875 596 C342.44408073 605.25426706 345.41591754 614.53606396 348 624 C348.34675781 625.25167969 348.69351563 626.50335937 349.05078125 627.79296875 C351.51364245 637.12141214 353.22059215 646.51124015 354.80859375 656.0234375 C355.68255629 661.2274524 356.62584942 666.41521778 357.59765625 671.6015625 C363.65538882 704.06790026 368.00023179 736.70027432 371.8125 769.5 C371.91782043 770.39254486 372.02314087 771.28508972 372.13165283 772.2046814 C372.43492547 774.79192542 372.728646 777.38008688 373.01953125 779.96875 C373.10466476 780.6881929 373.18979828 781.4076358 373.2775116 782.14888 C375.13402835 799.10777751 375.17213962 816.21535705 375.203125 833.25390625 C375.20595238 834.32823347 375.20877975 835.40256069 375.21169281 836.50944328 C375.22655634 842.20380763 375.23586456 847.89814753 375.24023438 853.5925293 C375.24460037 858.21240211 375.25843811 862.83208623 375.28125 867.4519043 C375.41197218 894.4655922 375.08051612 921.14095448 372 948 C371.87519257 949.10068817 371.75038513 950.20137634 371.62179565 951.3354187 C368.95525548 974.44159157 363.42316516 996.96328574 357.85546875 1019.51367188 C357.05606265 1022.77152552 356.27500624 1026.03314553 355.5 1029.296875 C352.76571502 1040.68942055 349.55290159 1051.81205873 345.88647461 1062.93994141 C343.86483143 1069.1249829 342.10197141 1075.28936121 340.625 1081.625 C338.5336307 1090.49163058 335.85064783 1099.14596175 333.0625 1107.8125 C332.85707581 1108.45672913 332.65165161 1109.10095825 332.44000244 1109.76470947 C329.36904285 1119.36632508 325.84411702 1128.68768338 322 1138 C321.3963562 1139.48318726 321.3963562 1139.48318726 320.78051758 1140.99633789 C314.9024823 1155.33458613 308.03101091 1168.75422194 300 1182 C299.3184082 1183.13187744 299.3184082 1183.13187744 298.62304688 1184.28662109 C293.46572849 1192.81822327 288.04502793 1201.06272593 282 1209 C281.42765625 1209.75410156 280.8553125 1210.50820312 280.265625 1211.28515625 C274.3763405 1218.94392761 268.33633426 1226.49598631 261.8125 1233.625 C257.0549288 1238.84244188 252.59356375 1244.28700217 248.13598633 1249.76025391 C237.49094845 1262.80724124 237.49094845 1262.80724124 231 1268 C229.33572863 1269.79957798 227.74971907 1271.65698955 226.15625 1273.51953125 C223.47217141 1276.60719413 220.71190759 1279.61857129 217.9375 1282.625 C217.44306396 1283.16310303 216.94862793 1283.70120605 216.43920898 1284.25561523 C214.96933104 1285.84670517 213.48867741 1287.42649077 212 1289 C211.46004395 1289.57202148 210.92008789 1290.14404297 210.36376953 1290.73339844 C208.94971958 1292.19591294 207.47880789 1293.60299851 206 1295 C205.34 1295 204.68 1295 204 1295 C203.34 1296.32 202.68 1297.64 202 1299 C201.34 1299 200.68 1299 200 1299 C200 1299.66 200 1300.32 200 1301 C198.56640625 1302.41015625 198.56640625 1302.41015625 196.5625 1304.0625 C193.47013306 1306.67911818 190.61348463 1309.38702716 187.8125 1312.3125 C183.30643952 1316.88060606 178.35494332 1320.70399339 173.23828125 1324.54296875 C170.35207817 1326.71164025 167.57690562 1328.98971986 164.8125 1331.3125 C144.82455826 1347.70030814 123.41305718 1361.32288435 99 1370 C97.62491932 1370.5115019 96.24991618 1371.02321232 94.875 1371.53515625 C73.81077415 1379.14573296 51.05954991 1384.28268344 29 1388 C27.95408691 1388.18046875 26.90817383 1388.3609375 25.83056641 1388.546875 C11.70842798 1390.92297446 -2.19096252 1392.37762913 -16.5 1392.375 C-17.77601074 1392.37661133 -19.05202148 1392.37822266 -20.36669922 1392.37988281 C-25.79833994 1392.31361635 -29.99227601 1392.21727378 -35 1390 C-37.05313085 1389.53937967 -39.11766308 1389.12853993 -41.1875 1388.75 C-56.66138108 1385.79219592 -72.04954362 1382.25250101 -87.16772461 1377.8203125 C-93.49941293 1376.01965575 -99.90773989 1374.83114889 -106.375 1373.625 C-117.69626205 1371.48014481 -128.30855829 1368.2720216 -139 1364 C-140.35569092 1363.459198 -140.35569092 1363.459198 -141.73876953 1362.9074707 C-149.73063344 1359.64963661 -157.49671552 1355.97254108 -165.25 1352.1875 C-166.20876038 1351.71988754 -166.20876038 1351.71988754 -167.18688965 1351.24282837 C-172.45069291 1348.67504537 -172.45069291 1348.67504537 -174.88433838 1347.48417664 C-178.09271061 1345.91697285 -181.31106698 1344.38194747 -184.5625 1342.90625 C-204.41538137 1333.7643471 -222.05673143 1319.638468 -239 1306 C-240.31465294 1304.94995565 -241.62974938 1303.90046629 -242.9453125 1302.8515625 C-244.75074017 1301.41088828 -246.55531549 1299.969344 -248.35400391 1298.52026367 C-248.89202637 1298.08689697 -249.43004883 1297.65353027 -249.984375 1297.20703125 C-250.58040527 1296.72500244 -251.17643555 1296.24297363 -251.79052734 1295.74633789 C-253.51189399 1294.38579251 -255.25669577 1293.05487917 -257.01025391 1291.73608398 C-265.97473483 1284.950611 -273.97864313 1277.45785604 -281.87353516 1269.46264648 C-283.91255278 1267.39950289 -285.96514856 1265.35056827 -288.01953125 1263.30273438 C-289.32371842 1261.99298536 -290.62713499 1260.68246845 -291.9296875 1259.37109375 C-292.54198212 1258.75971054 -293.15427673 1258.14832733 -293.78512573 1257.51841736 C-298 1253.23121015 -298 1253.23121015 -298 1251 C-298.84498047 1250.65388672 -298.84498047 1250.65388672 -299.70703125 1250.30078125 C-307.63726733 1245.80202722 -313.51457402 1236.08135239 -318.45703125 1228.70703125 C-320.89712219 1225.09498277 -323.49822329 1221.61428728 -326.11132812 1218.1262207 C-332.46752319 1209.63798106 -338.33549137 1201.01386164 -343.81445312 1191.93847656 C-345.01197037 1189.98042736 -346.24181999 1188.04692777 -347.484375 1186.1171875 C-353.46767641 1176.79769298 -358.71411304 1167.21073049 -363.77539062 1157.36376953 C-365.36997439 1154.28586683 -367.00801628 1151.2321874 -368.64648438 1148.17749023 C-371.86972304 1142.1582135 -374.96917284 1136.13647117 -377.7109375 1129.87890625 C-378.97447293 1127.05701045 -380.32467327 1124.28552553 -381.68432617 1121.5090332 C-396.91892505 1090.04990167 -406.81520443 1055.98949562 -415.0625 1022.125 C-415.29242645 1021.18200043 -415.52235291 1020.23900085 -415.75924683 1019.26742554 C-420.48241675 999.77456873 -423.71640797 980.40781197 -426.125 960.5 C-426.3914609 958.32806776 -426.65838522 956.15619231 -426.92578125 953.984375 C-427.52263941 949.13048031 -428.11785633 944.27640927 -428.69953918 939.42066956 C-428.9616495 937.30897171 -429.25873498 935.2016738 -429.56176758 933.09545898 C-430.23789555 927.6695961 -430.234784 922.21471011 -430.31640625 916.75390625 C-430.3373233 915.56649338 -430.35824036 914.37908051 -430.37979126 913.15568542 C-430.44594156 909.29135554 -430.50494804 905.42696697 -430.5625 901.5625 C-430.58313785 900.22798536 -430.60385966 898.89347201 -430.62466431 897.55895996 C-430.76684412 888.37283627 -430.88962208 879.18656571 -431 870 C-431.01309204 868.92554626 -431.02618408 867.85109253 -431.03967285 866.74407959 C-431.30119556 844.4530885 -431.12683582 822.3347246 -429.18359375 800.10754395 C-428.98787255 797.86078432 -428.79859338 795.61352703 -428.609375 793.36621094 C-424.46194655 744.73402122 -415.41509349 696.87473929 -400.8125 650.25 C-400.4215918 649.00049561 -400.03068359 647.75099121 -399.62792969 646.46362305 C-398.42771146 642.63950133 -397.21519245 638.81939033 -396 635 C-395.64276855 633.87480957 -395.28553711 632.74961914 -394.91748047 631.59033203 C-389.3630746 614.21175463 -382.99562954 597.20097628 -376.38011169 580.20672607 C-374.68008803 575.81910974 -373.0594446 571.41135398 -371.49609375 566.97265625 C-364.1982945 546.46798027 -354.57775766 527.22742584 -344.86555481 507.77832031 C-341.23335867 500.49867784 -337.72118793 493.17005601 -334.25 485.8125 C-329.95274829 476.77754142 -325.27486997 468.03333818 -320.32128906 459.34423828 C-317.78426716 454.84304015 -315.33791071 450.29202618 -312.875 445.75 C-308.99163834 438.6076723 -305.04924338 431.51121689 -300.98046875 424.47265625 C-299.51834329 421.90888991 -298.08574793 419.33824109 -296.67578125 416.74609375 C-291.27025995 406.82524612 -285.49390587 397.26978691 -279.23583984 387.86328125 C-278.15195712 386.22910643 -277.08438496 384.58413769 -276.01953125 382.9375 C-270.75607805 374.85714541 -264.9988701 367.1574383 -259.26171875 359.41015625 C-253.91967233 352.19439572 -248.90337342 344.88702015 -244.1875 337.25 C-239.45124356 329.579971 -234.32479491 322.26988528 -229 315 C-228.33355469 314.07960938 -227.66710937 313.15921875 -226.98046875 312.2109375 C-224.99440034 309.46846422 -222.99876719 306.73323191 -221 304 C-220.56510254 303.40509766 -220.13020508 302.81019531 -219.68212891 302.19726562 C-216.46147634 297.79322084 -213.2338751 293.39434386 -210 289 C-209.45601562 288.26007813 -208.91203125 287.52015625 -208.3515625 286.7578125 C-201.94427555 278.12834511 -195.2621317 269.6875842 -188.375 261.4375 C-183.53541712 255.54733152 -179.22312474 249.34102814 -175 243 C-174.61279785 242.42314453 -174.2255957 241.84628906 -173.82666016 241.25195312 C-167.12884701 231.2370487 -161.46717746 221.01669986 -157.09765625 209.765625 C-152.34817109 197.79895066 -146.79738614 186.1479293 -141.3515625 174.48828125 C-138.47754377 168.30914098 -135.75390528 162.0927205 -133.16113281 155.79052734 C-131.19792484 151.07238876 -129.07514483 146.42680206 -126.95117188 141.77929688 C-125.17324894 137.83266001 -123.58226234 133.88477704 -122.15625 129.796875 C-119.75577844 123.07847847 -116.68021442 116.72252085 -113.5625 110.3125 C-113.00240234 109.14138672 -112.44230469 107.97027344 -111.86523438 106.76367188 C-109.19242946 101.23405331 -106.46324172 95.87275748 -103.1105957 90.72436523 C-101.36946511 88.02100068 -99.86185999 85.1914071 -98.3125 82.375 C-94.07978478 74.84495366 -89.14486964 67.92672166 -84 61 C-83.23429687 59.95714844 -82.46859375 58.91429687 -81.6796875 57.83984375 C-68.35891415 39.85447903 -53.76062353 22.73213773 -36 9 C-35.27554687 8.32066406 -34.55109375 7.64132812 -33.8046875 6.94140625 C-29.90288108 4.24057367 -25.9564207 3.32800634 -21.375 2.25 C-20.4792627 2.034646 -19.58352539 1.81929199 -18.66064453 1.59741211 C-12.34552357 0.15007757 -6.48052236 -0.76558584 0 0 Z M-52.375 46.73046875 C-54.30537557 49.11619501 -56.15935958 51.54453188 -58 54 C-59.16541743 55.48525754 -60.33086009 56.97049539 -61.49682617 58.45532227 C-72.29282312 72.30103587 -81.79893056 86.46969239 -90 102 C-90.86566756 103.62251209 -91.73155597 105.24490636 -92.59765625 106.8671875 C-94.71280827 110.8439114 -96.80155957 114.83365119 -98.87451172 118.83251953 C-99.58595428 120.20262518 -100.30069893 121.57102568 -101.02001953 122.93701172 C-104.77374012 130.06542523 -107.93122081 137.20741057 -110.66772461 144.76733398 C-113.38749101 152.22022345 -116.6437812 159.41237244 -119.92480469 166.63183594 C-121.02096362 169.04617329 -122.10925714 171.46391467 -123.1953125 173.8828125 C-126.20459263 180.58407315 -129.22029249 187.28237214 -132.25390625 193.97265625 C-133.00293549 195.62745423 -133.75163344 197.28240222 -134.5 198.9375 C-134.87044434 199.75613525 -135.24088867 200.57477051 -135.62255859 201.41821289 C-137.96418063 206.61995171 -140.21618015 211.85317998 -142.42504883 217.11254883 C-152.88847802 241.94943731 -167.63385243 262.44638318 -184.72265625 283.19921875 C-191.22735139 291.19898961 -197.37970858 299.43599353 -203.32885742 307.85449219 C-205.89732026 311.48326533 -208.54053504 315.03668977 -211.25 318.5625 C-218.45024427 328.09485878 -224.86946394 338.19365426 -231.42773438 348.17236328 C-235.93009848 355.02181182 -240.50501203 361.78020666 -245.375 368.375 C-245.83318115 368.99560303 -246.2913623 369.61620605 -246.76342773 370.25561523 C-247.22563721 370.88153564 -247.68784668 371.50745605 -248.1640625 372.15234375 C-263.64912651 393.13572759 -277.23019393 415.00091374 -289.43261719 438.05078125 C-292.02451981 442.92775689 -294.66717949 447.77684743 -297.3125 452.625 C-297.81418701 453.54627686 -298.31587402 454.46755371 -298.83276367 455.41674805 C-301.49568006 460.29396377 -304.20908495 465.13252255 -307 469.9375 C-316.0577577 485.69500409 -324.08207946 502.00328013 -331.859375 518.421875 C-334.03040336 522.99841381 -336.25464786 527.54553073 -338.515625 532.078125 C-345.92344793 546.98182464 -352.25307246 561.9868508 -357.81005859 577.69580078 C-359.79594436 583.21015818 -361.93495357 588.6641065 -364.0625 594.125 C-367.42806828 602.82059409 -370.70491158 611.54366373 -373.875 620.3125 C-374.23215088 621.29557129 -374.58930176 622.27864258 -374.95727539 623.29150391 C-377.53062556 630.46337438 -379.8040797 637.70472178 -382 645 C-382.37576172 646.23129639 -382.75152344 647.46259277 -383.13867188 648.73120117 C-388.85552363 667.48141919 -394.00454109 686.23937115 -398.20751953 705.39599609 C-398.99617228 708.9825925 -399.80726225 712.5635744 -400.62109375 716.14453125 C-410.46573194 760.0026067 -414.01293145 804.7563204 -414.125 849.625 C-414.12786011 850.48312286 -414.13072021 851.34124573 -414.13366699 852.22537231 C-414.15226948 860.13854658 -414.1508381 868.00376417 -413.48828125 875.89453125 C-413.01763133 881.64449981 -412.93686863 887.33348919 -412.97265625 893.09765625 C-412.97815491 893.9881366 -412.98365356 894.87861694 -412.98931885 895.79608154 C-413.01690835 899.47882716 -413.05166446 903.16141052 -413.09594727 906.84399414 C-413.21513733 917.4819424 -412.91269613 927.50165734 -411 938 C-410.46421268 942.09783563 -410.01546441 946.20475987 -409.5625 950.3125 C-409.13592518 954.15167335 -408.69708249 957.98912924 -408.24783325 961.82571411 C-408.06819181 963.40174097 -407.89566953 964.97858457 -407.72750854 966.55587769 C-406.05869514 982.17424207 -403.21542609 997.19869948 -399.4375 1012.4375 C-399.17565918 1013.51219543 -398.91381836 1014.58689087 -398.64404297 1015.69415283 C-394.09906202 1034.34699474 -388.96363345 1052.75150172 -383 1071 C-382.66097656 1072.0509082 -382.32195313 1073.10181641 -381.97265625 1074.18457031 C-379.88814539 1080.56585015 -377.58171503 1086.80388394 -375 1093 C-374.48252197 1094.24813477 -374.48252197 1094.24813477 -373.95458984 1095.52148438 C-369.3438905 1106.56017747 -364.48315861 1117.36562287 -359 1128 C-358.01956736 1129.94723415 -357.04545151 1131.89752425 -356.07275391 1133.84863281 C-355.39951157 1135.19902223 -354.72470718 1136.54863402 -354.04833984 1137.89746094 C-352.35701851 1141.27036004 -350.68014305 1144.64910672 -349.03125 1148.04296875 C-344.4887329 1157.34683788 -339.4262337 1166.18617368 -334 1175 C-332.97705327 1176.72791725 -331.95596508 1178.45693739 -330.9375 1180.1875 C-324.40847545 1191.01612609 -317.01209343 1201.13717805 -309.484375 1211.28125 C-305.61081163 1216.50822708 -301.83810406 1221.80268538 -298.0859375 1227.1171875 C-294.46112254 1232.12676323 -290.79855146 1236.10816828 -286.11376953 1240.1171875 C-282.65740116 1243.19590232 -279.56269297 1246.59069858 -276.4375 1250 C-267.25877686 1260.02856151 -267.25877686 1260.02856151 -257.125 1269.0625 C-255.72507812 1270.18978516 -255.72507812 1270.18978516 -254.296875 1271.33984375 C-253.78060547 1271.75476074 -253.26433594 1272.16967773 -252.73242188 1272.59716797 C-250.01082674 1274.800985 -247.31638703 1277.03745195 -244.61816406 1279.26977539 C-238.91604859 1283.98575008 -233.21560981 1288.68936147 -227.3359375 1293.18359375 C-225.4452073 1294.65381038 -223.58234969 1296.14661196 -221.7265625 1297.66015625 C-192.00059803 1321.86200254 -158.28364815 1339.99728504 -121.9699707 1352.30761719 C-119.93261655 1353.02368317 -117.92835817 1353.80547523 -115.91796875 1354.59375 C-112.41458099 1355.91613634 -109.01969514 1356.65820146 -105.3125 1357.25 C-96.23553682 1358.81457306 -87.32917263 1361.03805036 -78.38647461 1363.22802734 C-68.62211439 1365.61752174 -58.83804345 1367.90595467 -49.03564453 1370.1340332 C-48.02099121 1370.36566162 -47.00633789 1370.59729004 -45.9609375 1370.8359375 C-44.62748291 1371.13830322 -44.62748291 1371.13830322 -43.26708984 1371.44677734 C-41 1372 -41 1372 -38 1373 C-35.13569136 1373.30239035 -32.27080066 1373.50765769 -29.3984375 1373.71875 C-27 1374 -27 1374 -26 1375 C-21.58981123 1375.25857926 -17.1668392 1375.18525567 -12.75 1375.1875 C-10.91695312 1375.20586914 -10.91695312 1375.20586914 -9.046875 1375.22460938 C-0.82652718 1375.23767137 6.91814866 1374.44493335 15 1373 C17.2444648 1372.63858918 19.4892651 1372.27925655 21.734375 1371.921875 C68.00179092 1364.28054257 112.43370433 1352.6088045 149.19921875 1322.26953125 C151.46717955 1320.43175548 153.75722741 1318.6507447 156.08203125 1316.88671875 C168.85696668 1307.16812636 180.61608863 1296.70056229 191.77734375 1285.16015625 C193.7249828 1283.26728385 195.72051787 1281.50885028 197.78125 1279.7421875 C201.98600621 1276.08890667 205.78761613 1272.15294364 209.5625 1268.0625 C210.18318359 1267.39798828 210.80386719 1266.73347656 211.44335938 1266.04882812 C215.16502216 1262.04774958 218.79100845 1257.97385742 222.37670898 1253.85083008 C224.62071921 1251.29227367 226.93219822 1248.8044924 229.25 1246.3125 C233.64382807 1241.55799595 237.86110356 1236.67885653 242.01464844 1231.71386719 C244.77158961 1228.42560973 247.59424642 1225.2216022 250.5 1222.0625 C282.4189121 1186.79862198 306.56526002 1142.34641506 319.0390625 1096.44921875 C320.09994291 1092.64126185 321.29234462 1088.88820122 322.5 1085.125 C324.3421369 1079.34666723 325.8700962 1073.55170443 327.26513672 1067.64648438 C329.15064842 1059.95611808 331.67744504 1052.46231964 334.18286133 1044.95532227 C336.02096385 1039.37718861 337.53957859 1033.90388815 338.6015625 1028.12646484 C339.07120969 1025.61995316 339.72057933 1023.19644117 340.4375 1020.75 C341.92592373 1015.44376939 343.06661106 1010.09740302 344.1875 1004.703125 C345.00893725 1000.95926677 345.96135971 997.26878265 346.9375 993.5625 C351.92563142 974.03322419 354.16181505 954.03425241 356 934 C356.0935376 933.03449219 356.1870752 932.06898438 356.28344727 931.07421875 C357.24594018 920.15585608 357.35782902 909.20295401 357.5625 898.25 C357.58334656 897.17808411 357.60419312 896.10616821 357.62567139 895.00177002 C358.55198267 846.76122899 359.20305464 798.23674004 351.80859375 750.41796875 C350.97465154 744.98652067 350.29844343 739.53864167 349.61962891 734.0859375 C346.48384435 708.97489671 342.35511493 684.09376835 337.41088867 659.27856445 C337.26755096 658.55795334 337.12421326 657.83734222 336.97653198 657.09489441 C336.69403709 655.67637557 336.41037703 654.25808825 336.1255188 652.84004211 C335.35431605 648.9594536 334.71102442 645.08446474 334.15625 641.16796875 C332.87546321 633.27705949 330.3783782 625.70563763 327.99682617 618.09130859 C327.18998694 615.5079627 326.39787266 612.92043263 325.60742188 610.33203125 C323.10456729 602.21140106 320.44632633 594.30740701 317.05249023 586.50585938 C315.54289085 582.91167518 314.47761766 579.25144511 313.4375 575.5 C310.59523635 565.69004645 307.41892749 555.99950447 304.1875 546.3125 C303.92815674 545.53473206 303.66881348 544.75696411 303.40161133 543.95562744 C299.70546069 532.89328153 295.89146665 521.88206713 291.85424805 510.9387207 C290.24999999 506.57539764 288.73675573 502.22406901 287.4296875 497.76171875 C286.24016747 493.7072423 284.82458187 489.83798794 283.1875 485.9375 C282.90543701 485.26195068 282.62337402 484.58640137 282.33276367 483.89038086 C281.22937026 481.25702297 280.11528658 478.62834457 279 476 C278.45735385 474.72037884 277.91471084 473.44075635 277.37207031 472.16113281 C276.77152197 470.74542676 276.17093481 469.32973717 275.5703125 467.9140625 C275.26392349 467.19189041 274.95753448 466.46971832 274.64186096 465.72566223 C273.08897805 462.06655466 271.53415446 458.40829465 269.9753418 454.75170898 C265.06841415 443.22979901 265.06841415 443.22979901 262.7734375 437.4296875 C261.24789222 433.57497944 259.58440783 429.81194448 257.8125 426.0625 C257.52060791 425.44479736 257.22871582 424.82709473 256.92797852 424.19067383 C256.29378257 422.84898457 255.6585784 421.50777149 255.02246094 420.16699219 C253.92338461 417.8376222 252.83991348 415.5013636 251.7578125 413.1640625 C248.24914551 405.61935447 244.75174258 398.22384023 240.32421875 391.1640625 C237.27247123 386.17684089 234.83063236 380.86003064 232.44921875 375.52734375 C227.0966109 363.56895676 220.26300545 353.10738065 212.68359375 342.4296875 C210.3054644 338.99767716 208.0852586 335.47294454 205.87109375 331.93359375 C204.37287474 329.58461154 202.83962242 327.27362151 201.28125 324.96484375 C197.37361213 319.12191375 193.72678892 313.12236976 190.0625 307.125 C179.54028213 289.92502826 168.68080092 273.92553447 155.47119141 258.70068359 C149.42319621 251.70925735 143.61309552 244.61383669 138.2421875 237.0859375 C135.50195724 233.31454045 132.65910296 229.62886068 129.8125 225.9375 C124.73657811 219.33850737 119.80677772 212.64914849 114.95532227 205.88378906 C111.52815511 201.10668195 108.06296298 196.36063086 104.56347656 191.63623047 C101.69729897 187.76604183 98.84484852 183.88588837 96 180 C95.56703613 179.40912598 95.13407227 178.81825195 94.68798828 178.20947266 C88.12926952 169.19495323 82.57033053 159.66824148 77.12988281 149.94921875 C75.96054065 147.86649987 75.96054065 147.86649987 74.2421875 145.5 C72.80743656 142.61245095 72.6113438 140.04843697 72.34521484 136.86474609 C71.55023226 130.26762752 69.817305 123.77917538 68.3125 117.3125 C68.13259521 116.53576935 67.95269043 115.7590387 67.76733398 114.95877075 C66.53183791 109.63428949 65.27386514 104.31542439 64 99 C63.58693604 97.27378418 63.58693604 97.27378418 63.16552734 95.51269531 C57.97299953 74.20671249 50.34013468 55.02829025 35 39 C33.7625 37.63875 33.7625 37.63875 32.5 36.25 C29.64368802 33.67931922 26.61635058 31.68060996 23.38671875 29.609375 C20.98288078 27.98845643 18.7942555 26.22360456 16.5625 24.375 C-9.33514051 4.16767151 -35.20552181 26.99121669 -52.375 46.73046875 Z " fill="#E99468" transform="translate(1050,326)"/>
</svg>
