<?xml version="1.0" encoding="UTF-8"?>
<svg version="1.1" xmlns="http://www.w3.org/2000/svg" width="2048" height="2048">
<path d="M0 0 C1.74354137 1.50486756 3.51270343 2.97495914 5.2890625 4.44091797 C5.89516357 4.94349121 6.50126465 5.44606445 7.12573242 5.96386719 C8.29447386 6.9317287 9.46639102 7.89577154 10.6418457 8.85546875 C11.99921358 9.9876269 13.3059365 11.18000026 14.6015625 12.38232422 C14.6015625 13.04232422 14.6015625 13.70232422 14.6015625 14.38232422 C15.16230469 14.61693359 15.72304687 14.85154297 16.30078125 15.09326172 C23.95607947 19.38230826 29.94672831 27.74551284 35.6015625 34.38232422 C36.49251875 35.39880099 37.38453589 36.4143484 38.27734375 37.42919922 C54.73170109 56.22990658 68.46272598 76.57587799 80.6015625 98.38232422 C81.0567627 99.19411133 81.51196289 100.00589844 81.98095703 100.84228516 C100.82583175 134.70280961 112.62746168 172.00584985 119.3515625 210.06982422 C119.55031982 211.18389648 119.74907715 212.29796875 119.95385742 213.44580078 C123.03567329 231.76497027 124.01513319 250.07647038 123.9765625 268.63232422 C123.97524826 270.19504562 123.97524826 270.19504562 123.97390747 271.78933716 C123.8677909 310.32287182 117.53105249 348.04065748 104.6015625 384.38232422 C104.29138184 385.27242187 103.98120117 386.16251953 103.66162109 387.07958984 C89.43792431 427.60697126 67.00475788 466.04386121 37.97265625 497.76513672 C36.07247451 499.86253667 34.21847859 501.98514427 32.37109375 504.12841797 C22.43527764 515.50341634 11.54383278 526.13945123 -0.3984375 535.38232422 C-1.48852977 536.28121965 -2.57557895 537.18381352 -3.66015625 538.08935547 C-57.88019051 583.04957425 -130.0291908 609.55177802 -200.3984375 611.38232422 C-201.23068848 611.40423828 -202.06293945 611.42615234 -202.92041016 611.44873047 C-265.98472792 612.82492944 -328.20200565 596.75548412 -382.3984375 564.38232422 C-383.08292969 563.9741748 -383.76742187 563.56602539 -384.47265625 563.14550781 C-401.31069176 553.02452165 -417.01844336 541.31543007 -432.2109375 528.88232422 C-433.20738281 528.06763672 -434.20382812 527.25294922 -435.23046875 526.41357422 C-436.30361328 525.40810547 -436.30361328 525.40810547 -437.3984375 524.38232422 C-437.3984375 523.72232422 -437.3984375 523.06232422 -437.3984375 522.38232422 C-438.23725464 522.03028931 -438.23725464 522.03028931 -439.09301758 521.67114258 C-441.9662081 520.06491863 -443.95377096 518.08638032 -446.28515625 515.76123047 C-446.97711845 515.07213844 -446.97711845 515.07213844 -447.68305969 514.36912537 C-448.6595755 513.39396807 -449.63358006 512.41629039 -450.60522461 511.4362793 C-452.0570187 509.97395282 -453.51893279 508.52238753 -454.98242188 507.07177734 C-461.22249996 500.84051199 -466.90382946 494.28249826 -472.3984375 487.38232422 C-473.81166298 485.69194129 -475.22792933 484.00409179 -476.6484375 482.31982422 C-519.02950396 430.28324523 -544.12488796 364.81407668 -551.3984375 298.38232422 C-551.49342529 297.56014404 -551.58841309 296.73796387 -551.6862793 295.89086914 C-554.70966735 265.74150171 -553.5379973 234.22614659 -548.3984375 204.38232422 C-548.11758301 202.7486792 -548.11758301 202.7486792 -547.83105469 201.08203125 C-536.46237955 137.454757 -507.51934879 80.76730389 -465.70556641 31.93505859 C-464.7966492 30.85535866 -463.90415633 29.76170527 -463.02490234 28.65771484 C-461.85713527 27.1987543 -460.63199414 25.78609907 -459.3984375 24.38232422 C-458.7384375 24.38232422 -458.0784375 24.38232422 -457.3984375 24.38232422 C-457.13289062 23.79064453 -456.86734375 23.19896484 -456.59375 22.58935547 C-453.48088445 16.84174424 -447.56902201 12.58601436 -442.66796875 8.37841797 C-441.01256015 6.92245618 -439.38891663 5.43014534 -437.78515625 3.91748047 C-430.42180765 -3.02738283 -422.67572209 -9.17141365 -414.47949219 -15.10595703 C-412.44377656 -16.5847406 -410.42471536 -18.08421984 -408.40625 -19.58642578 C-325.19967411 -80.75499319 -210.73104322 -95.87079803 0 0 Z M-4.3984375 20.38232422 C-3.0784375 22.03232422 -1.7584375 23.68232422 -0.3984375 25.38232422 C0.2615625 25.05232422 0.9215625 24.72232422 1.6015625 24.38232422 C0.31191074 23.00669567 -1.02533043 21.67466029 -2.3984375 20.38232422 C-3.0584375 20.38232422 -3.7184375 20.38232422 -4.3984375 20.38232422 Z M6.6015625 30.38232422 C6.95035882 33.63775651 7.62289511 34.40105529 10.1640625 36.63232422 C10.9684375 37.20982422 11.7728125 37.78732422 12.6015625 38.38232422 C13.2615625 38.05232422 13.9215625 37.72232422 14.6015625 37.38232422 C13.4587706 36.2126782 12.31224535 35.04667866 11.1640625 33.88232422 C10.52597656 33.23263672 9.88789062 32.58294922 9.23046875 31.91357422 C7.85273323 30.26816946 7.85273323 30.26816946 6.6015625 30.38232422 Z M17.6015625 42.38232422 C20.18349875 48.26340124 23.81913257 52.78461993 28.484375 57.14013672 C31.24517795 60.06393911 33.34846876 63.2703858 35.5390625 66.63232422 C35.98000244 67.30038086 36.42094238 67.9684375 36.87524414 68.65673828 C39.15097731 72.1164251 41.37742841 75.59989777 43.5390625 79.13232422 C45.32044928 82.22277587 45.32044928 82.22277587 47.0625 83.78857422 C48.94485599 85.73781596 50.0220886 87.73632773 51.2890625 90.13232422 C52.06056641 91.58251953 52.06056641 91.58251953 52.84765625 93.06201172 C53.71583984 94.70556641 53.71583984 94.70556641 54.6015625 96.38232422 C55.29961132 97.67722641 55.99888121 98.97147093 56.69921875 100.26513672 C57.4168664 101.59575818 58.13431613 102.92648641 58.8515625 104.25732422 C59.19276123 104.88735352 59.53395996 105.51738281 59.88549805 106.16650391 C61.67443718 109.50680607 63.27812869 112.83066001 64.6015625 116.38232422 C65.2615625 116.38232422 65.9215625 116.38232422 66.6015625 116.38232422 C66.77316895 116.9145459 66.94477539 117.44676758 67.12158203 117.99511719 C69.05700772 123.90898907 71.22512512 129.70759566 73.4765625 135.50732422 C82.11046012 157.96936766 82.11046012 157.96936766 83.6015625 166.38232422 C84.2615625 166.38232422 84.9215625 166.38232422 85.6015625 166.38232422 C85.71838379 166.97803223 85.83520508 167.57374023 85.95556641 168.1875 C86.84366919 172.67682034 87.76165381 177.15612024 88.75 181.62451172 C91.18283743 192.7231003 93.24234648 203.82039377 94.8515625 215.06982422 C95.01446777 216.20210449 95.17737305 217.33438477 95.34521484 218.50097656 C97.41088579 233.47434692 97.84255674 248.28974457 97.8515625 263.38232422 C97.85223724 264.40121735 97.85291199 265.42011047 97.85360718 266.46987915 C97.82156708 297.03283484 94.29156702 326.9758253 86.30078125 356.53857422 C85.48217875 359.37978756 85.48217875 359.37978756 85.6015625 362.38232422 C84.9415625 362.38232422 84.2815625 362.38232422 83.6015625 362.38232422 C83.28445313 363.53603516 82.96734375 364.68974609 82.640625 365.87841797 C78.8391016 379.29326165 73.90884943 392.09068677 68.5378418 404.95068359 C67.71463545 407.08865888 67.09466174 409.14858793 66.6015625 411.38232422 C65.9415625 411.38232422 65.2815625 411.38232422 64.6015625 411.38232422 C64.29452393 412.03193115 63.98748535 412.68153809 63.67114258 413.35083008 C62.25521017 416.34197066 60.83466762 419.33090023 59.4140625 422.31982422 C58.93130859 423.34140625 58.44855469 424.36298828 57.95117188 425.41552734 C50.07270766 441.96558976 50.07270766 441.96558976 45.2265625 447.75732422 C41.25166764 452.70654255 37.95778326 458.00306969 34.6015625 463.38232422 C31.29862272 468.59919243 28.10518315 473.10965848 23.6015625 477.38232422 C22.38848699 478.81886101 21.17621926 480.2562493 19.984375 481.71044922 C18.38347893 483.64599588 16.74852769 485.54831885 15.1015625 487.44482422 C14.555 488.07517578 14.0084375 488.70552734 13.4453125 489.35498047 C10.38568654 492.71927257 7.11845194 495.87211869 3.8828125 499.06591797 C-1.94247529 504.74699211 -1.94247529 504.74699211 -7.2734375 510.88232422 C-9.48760188 513.48722349 -11.42659207 514.74780923 -14.3984375 516.38232422 C-18.58153698 519.51964883 -22.3174289 523.01754172 -25.7734375 526.94482422 C-27.44766441 528.4258711 -29.05994367 529.32475132 -31.0234375 530.38232422 C-34.64508602 532.03071888 -34.64508602 532.03071888 -35.3984375 535.38232422 C-37.20410156 536.42529297 -37.20410156 536.42529297 -39.3984375 537.38232422 C-42.33925061 539.00739787 -45.24259618 540.69568332 -48.1484375 542.38232422 C-49.33759766 543.05908203 -49.33759766 543.05908203 -50.55078125 543.74951172 C-51.29972656 544.18521484 -52.04867187 544.62091797 -52.8203125 545.06982422 C-53.50706055 545.46556641 -54.19380859 545.86130859 -54.90136719 546.26904297 C-55.39540039 546.63642578 -55.88943359 547.00380859 -56.3984375 547.38232422 C-56.3984375 548.04232422 -56.3984375 548.70232422 -56.3984375 549.38232422 C-57.38263672 549.75164062 -57.38263672 549.75164062 -58.38671875 550.12841797 C-62.21538505 551.72245413 -65.88671356 553.57345211 -69.5859375 555.44482422 C-70.30974609 555.80898437 -71.03355469 556.17314453 -71.77929688 556.54833984 C-73.65316352 557.49137413 -75.52588 558.43669307 -77.3984375 559.38232422 C-78.0584375 559.71232422 -78.7184375 560.04232422 -79.3984375 560.38232422 C-79.3984375 561.04232422 -79.3984375 561.70232422 -79.3984375 562.38232422 C-79.9255835 562.55030518 -80.45272949 562.71828613 -80.99584961 562.89135742 C-87.09000849 564.8732031 -93.02419824 567.16115451 -98.9609375 569.56982422 C-100.33088867 570.12186523 -100.33088867 570.12186523 -101.72851562 570.68505859 C-103.95280014 571.58175968 -106.17607195 572.4808802 -108.3984375 573.38232422 C-108.3984375 574.04232422 -108.3984375 574.70232422 -108.3984375 575.38232422 C-109.8215625 575.56794922 -109.8215625 575.56794922 -111.2734375 575.75732422 C-114.48510941 576.09919599 -114.48510941 576.09919599 -116.3984375 578.38232422 C-72.89821409 570.1747349 -30.12818558 539.64540847 1.74609375 510.01513672 C4.26460149 507.69301057 6.82463991 505.43693886 9.4140625 503.19482422 C12.78273818 500.21182876 15.75480756 497.07854111 18.65625 493.64404297 C20.60330515 491.38029812 22.61783183 489.18904492 24.65234375 487.00390625 C29.60915134 481.67132989 34.28433307 476.24867715 38.6015625 470.38232422 C39.05756836 469.77179199 39.51357422 469.16125977 39.98339844 468.53222656 C73.97279298 422.95212682 95.28636511 370.51999783 103.6015625 314.38232422 C103.71628906 313.60840332 103.83101562 312.83448242 103.94921875 312.03710938 C116.4335852 225.65398518 91.40067981 136.68291876 39.7355957 67.03540039 C35.07533618 60.86638103 30.14430074 54.9610747 25.02734375 49.16748047 C22.6015625 46.38232422 22.6015625 46.38232422 20.89453125 44.00341797 C20.46785156 43.46845703 20.04117188 42.93349609 19.6015625 42.38232422 C18.9415625 42.38232422 18.2815625 42.38232422 17.6015625 42.38232422 Z M-535.3984375 258.38232422 C-536.61712551 310.78590883 -524.94590675 363.54014595 -501.3984375 410.38232422 C-500.90214844 411.37377441 -500.40585937 412.36522461 -499.89453125 413.38671875 C-497.5402956 418.05831103 -495.15616705 422.7146822 -492.7109375 427.33935547 C-492.33582031 428.05067627 -491.96070313 428.76199707 -491.57421875 429.49487305 C-490.37323782 431.42277661 -489.06496795 432.84876801 -487.3984375 434.38232422 C-488.06929177 429.73167235 -489.89298836 425.70537424 -491.7734375 421.44482422 C-514.05863888 369.43405625 -526.77443545 314.30682212 -534.3984375 258.38232422 C-534.7284375 258.38232422 -535.0584375 258.38232422 -535.3984375 258.38232422 Z M-487.3984375 434.38232422 C-486.3984375 436.38232422 -486.3984375 436.38232422 -486.3984375 436.38232422 Z M-133.3984375 582.38232422 C-129.39643372 583.98312573 -126.35287514 582.67512114 -122.3984375 581.38232422 C-122.3984375 581.05232422 -122.3984375 580.72232422 -122.3984375 580.38232422 C-126.48562445 580.14190146 -129.57523193 580.9597361 -133.3984375 582.38232422 Z M-137.3984375 583.38232422 C-133.3984375 584.38232422 -133.3984375 584.38232422 -133.3984375 584.38232422 Z M-141.3984375 584.38232422 C-137.3984375 585.38232422 -137.3984375 585.38232422 -137.3984375 585.38232422 Z M-146.3984375 585.38232422 C-142.3984375 586.38232422 -142.3984375 586.38232422 -142.3984375 586.38232422 Z M-150.3984375 586.38232422 C-146.3984375 587.38232422 -146.3984375 587.38232422 -146.3984375 587.38232422 Z " fill="#DA6B5C" transform="translate(1238.3984375,757.61767578125)"/>
<path d="M0 0 C3.57225448 1.99824907 7.13776219 4.27552437 9 8 C9.11998593 9.82921559 9.17732243 11.66267276 9.20532227 13.49560547 C9.22526245 14.65623001 9.24520264 15.81685455 9.26574707 17.01264954 C9.29082336 18.92064583 9.29082336 18.92064583 9.31640625 20.8671875 C9.33709873 22.20310495 9.3581426 23.53901699 9.3795166 24.87492371 C9.43545621 28.46526792 9.48477027 32.05567463 9.53242874 35.64613724 C9.56239165 37.86696916 9.59421983 40.08776647 9.62667847 42.30856323 C9.98940571 67.20617717 10.13138384 92.09972985 10 117 C12.98216995 116.70151786 15.96381353 116.39880524 18.9453125 116.09375 C20.19308472 115.9695166 20.19308472 115.9695166 21.46606445 115.84277344 C49.83328937 112.91917029 90.31719663 102.91614246 110.59765625 81.296875 C113.21606539 78.87539357 116.56303531 78.91701494 120 79 C122.5 79.875 122.5 79.875 124 82 C125.90497982 124.32368202 101.36756576 170.53511723 73.5 201.25 C61.58992819 214.05467637 45.89348298 227.93801361 28 231 C28.23783203 231.93585938 28.23783203 231.93585938 28.48046875 232.890625 C35.20822195 273.15597498 16.9351732 319.55989128 -5.7199707 352.21630859 C-15.13337373 365.38116061 -26.64723232 377.32001028 -41 385 C-42.01126953 385.56074219 -42.01126953 385.56074219 -43.04296875 386.1328125 C-46.31534601 387.58284793 -49.54105636 387.65069237 -53 387 C-56 385 -56 385 -58 382 C-58.7382701 376.46297423 -57.65625353 372.50859993 -55.80078125 367.3203125 C-46.90098485 341.53260977 -56.62458259 310.54363054 -68 287 C-70.97180355 281.7167937 -74.33671301 276.82185666 -78 272 C-81.54071038 272.74843109 -84.15344198 274.21681623 -87.22387695 276.13500977 C-112.58327676 291.94943384 -141.9272783 300.87394031 -171 307 C-171.7420166 307.16226074 -172.4840332 307.32452148 -173.24853516 307.49169922 C-194.78077111 312.17094045 -194.78077111 312.17094045 -201.6875 308.6171875 C-204.50388057 306.64762406 -206.19629772 304.93936667 -208 302 C-208.96847313 295.13264508 -206.13355995 290.73577077 -202.8125 285 C-202.27222168 284.03940674 -201.73194336 283.07881348 -201.17529297 282.08911133 C-199.46338639 279.05172249 -197.73198736 276.02597285 -196 273 C-194.93191405 271.10902068 -193.86547193 269.21711181 -192.80078125 267.32421875 C-190.65816243 263.51805548 -188.507958 259.71634328 -186.3515625 255.91796875 C-182.87698228 249.79205735 -179.43662217 243.64726445 -176 237.5 C-171.28691723 229.07421876 -166.56017862 220.65634169 -161.8125 212.25 C-161.27173828 211.29158203 -160.73097656 210.33316406 -160.17382812 209.34570312 C-159.66916016 208.45302734 -159.16449219 207.56035156 -158.64453125 206.640625 C-158.20471924 205.86235352 -157.76490723 205.08408203 -157.31176758 204.28222656 C-156 202 -156 202 -154.2097168 199.45996094 C-152.73587009 197.12725969 -152.73587009 197.12725969 -153.50244141 194.94384766 C-155.39778749 192.48366743 -157.49995913 190.79572563 -159.9609375 188.8984375 C-165.90598535 184.15906939 -171.2768523 179.02075732 -176.625 173.625 C-177.5015625 172.75617188 -178.378125 171.88734375 -179.28125 170.9921875 C-185.28338777 164.97223923 -190.69301833 158.63406053 -196 152 C-196.88675043 150.94892686 -197.77859538 149.9020854 -198.6796875 148.86328125 C-230.10338916 112.35140014 -230.10338916 112.35140014 -229 92 C-227.75 89 -227.75 89 -226 87 C-218.39904771 84.46634924 -210.9154308 86.21301315 -203.5 88.5625 C-201.65680194 89.11512551 -199.81302316 89.66581684 -197.96875 90.21484375 C-197.00195312 90.50601074 -196.03515625 90.79717773 -195.0390625 91.09716797 C-162.39156934 100.79594928 -128.27533942 107.87415105 -94 106 C-92.77667969 105.99742187 -91.55335938 105.99484375 -90.29296875 105.9921875 C-86.67413401 104.90181499 -86.38070764 104.63121655 -84.5859375 101.5546875 C-83.82499002 100.0063425 -83.08970612 98.44522561 -82.375 96.875 C-81.52194897 95.13619097 -80.66499557 93.39929243 -79.8046875 91.6640625 C-79.35448242 90.74270508 -78.90427734 89.82134766 -78.44042969 88.87207031 C-75.95179888 83.90999356 -73.23413596 79.08002694 -70.5 74.25 C-69.94852295 73.27562988 -69.3970459 72.30125977 -68.82885742 71.29736328 C-25.30968928 -4.81458313 -25.30968928 -4.81458313 0 0 Z " fill="#ABBB89" transform="translate(1115,725)"/>
<path d="M0 0 C1.74354137 1.50486756 3.51270343 2.97495914 5.2890625 4.44091797 C5.89516357 4.94349121 6.50126465 5.44606445 7.12573242 5.96386719 C8.29447386 6.9317287 9.46639102 7.89577154 10.6418457 8.85546875 C11.99921358 9.9876269 13.3059365 11.18000026 14.6015625 12.38232422 C14.6015625 13.04232422 14.6015625 13.70232422 14.6015625 14.38232422 C15.16230469 14.61693359 15.72304687 14.85154297 16.30078125 15.09326172 C23.95607947 19.38230826 29.94672831 27.74551284 35.6015625 34.38232422 C36.49251875 35.39880099 37.38453589 36.4143484 38.27734375 37.42919922 C54.73170109 56.22990658 68.46272598 76.57587799 80.6015625 98.38232422 C81.0567627 99.19411133 81.51196289 100.00589844 81.98095703 100.84228516 C100.82583175 134.70280961 112.62746168 172.00584985 119.3515625 210.06982422 C119.55031982 211.18389648 119.74907715 212.29796875 119.95385742 213.44580078 C123.03567329 231.76497027 124.01513319 250.07647038 123.9765625 268.63232422 C123.97524826 270.19504562 123.97524826 270.19504562 123.97390747 271.78933716 C123.8677909 310.32287182 117.53105249 348.04065748 104.6015625 384.38232422 C104.29138184 385.27242187 103.98120117 386.16251953 103.66162109 387.07958984 C89.43792431 427.60697126 67.00475788 466.04386121 37.97265625 497.76513672 C36.07247451 499.86253667 34.21847859 501.98514427 32.37109375 504.12841797 C22.43527764 515.50341634 11.54383278 526.13945123 -0.3984375 535.38232422 C-1.48852977 536.28121965 -2.57557895 537.18381352 -3.66015625 538.08935547 C-57.88019051 583.04957425 -130.0291908 609.55177802 -200.3984375 611.38232422 C-201.23068848 611.40423828 -202.06293945 611.42615234 -202.92041016 611.44873047 C-265.98472792 612.82492944 -328.20200565 596.75548412 -382.3984375 564.38232422 C-383.08292969 563.9741748 -383.76742187 563.56602539 -384.47265625 563.14550781 C-401.31069176 553.02452165 -417.01844336 541.31543007 -432.2109375 528.88232422 C-433.20738281 528.06763672 -434.20382812 527.25294922 -435.23046875 526.41357422 C-436.30361328 525.40810547 -436.30361328 525.40810547 -437.3984375 524.38232422 C-437.3984375 523.72232422 -437.3984375 523.06232422 -437.3984375 522.38232422 C-438.23725464 522.03028931 -438.23725464 522.03028931 -439.09301758 521.67114258 C-441.9662081 520.06491863 -443.95377096 518.08638032 -446.28515625 515.76123047 C-446.97711845 515.07213844 -446.97711845 515.07213844 -447.68305969 514.36912537 C-448.6595755 513.39396807 -449.63358006 512.41629039 -450.60522461 511.4362793 C-452.0570187 509.97395282 -453.51893279 508.52238753 -454.98242188 507.07177734 C-461.22249996 500.84051199 -466.90382946 494.28249826 -472.3984375 487.38232422 C-473.81166298 485.69194129 -475.22792933 484.00409179 -476.6484375 482.31982422 C-519.02950396 430.28324523 -544.12488796 364.81407668 -551.3984375 298.38232422 C-551.49342529 297.56014404 -551.58841309 296.73796387 -551.6862793 295.89086914 C-554.70966735 265.74150171 -553.5379973 234.22614659 -548.3984375 204.38232422 C-548.11758301 202.7486792 -548.11758301 202.7486792 -547.83105469 201.08203125 C-536.46237955 137.454757 -507.51934879 80.76730389 -465.70556641 31.93505859 C-464.7966492 30.85535866 -463.90415633 29.76170527 -463.02490234 28.65771484 C-461.85713527 27.1987543 -460.63199414 25.78609907 -459.3984375 24.38232422 C-458.7384375 24.38232422 -458.0784375 24.38232422 -457.3984375 24.38232422 C-457.13289062 23.79064453 -456.86734375 23.19896484 -456.59375 22.58935547 C-453.48088445 16.84174424 -447.56902201 12.58601436 -442.66796875 8.37841797 C-441.01256015 6.92245618 -439.38891663 5.43014534 -437.78515625 3.91748047 C-430.42180765 -3.02738283 -422.67572209 -9.17141365 -414.47949219 -15.10595703 C-412.44377656 -16.5847406 -410.42471536 -18.08421984 -408.40625 -19.58642578 C-325.19967411 -80.75499319 -210.73104322 -95.87079803 0 0 Z M-265.3984375 -59.61767578 C-267.15945801 -59.28775635 -267.15945801 -59.28775635 -268.95605469 -58.95117188 C-272.02679296 -58.36840741 -275.08784883 -57.75136372 -278.1484375 -57.11767578 C-280.27988779 -56.68118413 -282.41139801 -56.24498507 -284.54296875 -55.80908203 C-286.04851318 -55.49994873 -286.04851318 -55.49994873 -287.58447266 -55.18457031 C-290.04365541 -54.68914932 -292.50478131 -54.21968652 -294.97265625 -53.77001953 C-301.2823428 -52.60250422 -307.00064366 -51.21993998 -312.8828125 -48.64892578 C-316.73926383 -47.06802027 -320.72800313 -45.976704 -324.734375 -44.84033203 C-352.76881403 -35.48555653 -379.76647126 -20.22809426 -403.3984375 -2.61767578 C-403.9749707 -2.19276855 -404.55150391 -1.76786133 -405.14550781 -1.33007812 C-418.6123322 8.6221181 -430.90467212 19.70724527 -442.7734375 31.50732422 C-443.68859131 32.41321289 -444.60374512 33.31910156 -445.54663086 34.25244141 C-451.58939243 40.32319651 -457.06518661 46.68530173 -462.3984375 53.38232422 C-463.41059311 54.60265802 -464.42574694 55.82051821 -465.4453125 57.03466797 C-493.80056244 91.26819512 -513.99499596 133.57423501 -525.3984375 176.38232422 C-525.61838379 177.20442383 -525.83833008 178.02652344 -526.06494141 178.87353516 C-528.80175608 189.28668327 -530.92175918 199.75569334 -532.6484375 210.38232422 C-532.81166504 211.38416748 -532.97489258 212.38601074 -533.14306641 213.41821289 C-535.28880195 227.2900847 -535.60321878 241.06542693 -535.5859375 255.06982422 C-535.58533325 255.97483673 -535.584729 256.87984924 -535.58410645 257.81228638 C-535.48829612 310.82986729 -525.34338692 362.8261529 -501.3984375 410.38232422 C-500.9127832 411.3471875 -500.42712891 412.31205078 -499.92675781 413.30615234 C-495.76266828 421.51418719 -491.57226781 429.65355539 -486.62646484 437.42138672 C-485.38153584 439.40931311 -484.20289818 441.42409972 -483.0390625 443.46044922 C-478.00755798 452.25958604 -472.74573339 460.45660025 -466.3984375 468.38232422 C-465.65722656 469.31560547 -464.91601562 470.24888672 -464.15234375 471.21044922 C-459.77030761 476.64812318 -455.2130794 481.89463069 -450.5078125 487.05419922 C-448.64168183 489.11385455 -446.82773962 491.20621316 -445.0234375 493.31982422 C-438.08593173 501.27139696 -430.4471487 508.5696651 -422.3984375 515.38232422 C-421.0371875 516.57728516 -421.0371875 516.57728516 -419.6484375 517.79638672 C-392.20961143 541.73163474 -360.11415359 559.89204855 -326.3984375 573.38232422 C-325.24045654 573.8514624 -325.24045654 573.8514624 -324.05908203 574.33007812 C-301.32082709 583.4536022 -277.55658746 588.66922654 -253.3984375 592.38232422 C-252.56924805 592.51509766 -251.74005859 592.64787109 -250.88574219 592.78466797 C-172.69766975 604.89208588 -88.16198484 578.37148699 -25.3359375 532.63232422 C-15.84916761 525.59480645 -6.9008903 518.05335727 1.74609375 510.01513672 C4.26460149 507.69301057 6.82463991 505.43693886 9.4140625 503.19482422 C12.78273818 500.21182876 15.75480756 497.07854111 18.65625 493.64404297 C20.60330515 491.38029812 22.61783183 489.18904492 24.65234375 487.00390625 C29.60915134 481.67132989 34.28433307 476.24867715 38.6015625 470.38232422 C39.05756836 469.77179199 39.51357422 469.16125977 39.98339844 468.53222656 C73.97279298 422.95212682 95.28636511 370.51999783 103.6015625 314.38232422 C103.71628906 313.60840332 103.83101562 312.83448242 103.94921875 312.03710938 C116.4335852 225.65398518 91.40067981 136.68291876 39.7355957 67.03540039 C35.07533618 60.86638103 30.14430074 54.9610747 25.02734375 49.16748047 C22.6015625 46.38232422 22.6015625 46.38232422 20.89453125 44.00341797 C20.46785156 43.46845703 20.04117188 42.93349609 19.6015625 42.38232422 C18.9415625 42.38232422 18.2815625 42.38232422 17.6015625 42.38232422 C17.35857422 41.81481445 17.11558594 41.24730469 16.86523438 40.66259766 C15.36188981 37.94983912 13.57294234 36.0945478 11.3828125 33.89794922 C10.53203125 33.04458984 9.68125 32.19123047 8.8046875 31.31201172 C7.91265625 30.42771484 7.020625 29.54341797 6.1015625 28.63232422 C5.24046875 27.76349609 4.379375 26.89466797 3.4921875 25.99951172 C-2.17170619 20.3525758 -8.08185087 15.27950041 -14.3984375 10.38232422 C-16.23493852 8.86531758 -18.06898951 7.34532911 -19.8984375 5.81982422 C-24.09425884 2.37830784 -28.38847106 -0.80627467 -32.8671875 -3.86767578 C-35.58850171 -5.7490782 -38.24112124 -7.7095817 -40.8984375 -9.68017578 C-45.90064469 -13.32514074 -51.03836824 -16.53133852 -56.3984375 -19.61767578 C-57.36523438 -20.19904297 -58.33203125 -20.78041016 -59.328125 -21.37939453 C-106.02896239 -48.98552503 -159.76104342 -63.28277684 -213.87011719 -63.00878906 C-217.65856581 -62.99263259 -221.44595734 -63.00877757 -225.234375 -63.02783203 C-238.9266028 -63.04011486 -251.97600578 -62.34002737 -265.3984375 -59.61767578 Z " fill="#BC5851" transform="translate(1238.3984375,757.61767578125)"/>
<path d="M0 0 C3.57225448 1.99824907 7.13776219 4.27552437 9 8 C9.11998593 9.82921559 9.17732243 11.66267276 9.20532227 13.49560547 C9.22526245 14.65623001 9.24520264 15.81685455 9.26574707 17.01264954 C9.29082336 18.92064583 9.29082336 18.92064583 9.31640625 20.8671875 C9.33709873 22.20310495 9.3581426 23.53901699 9.3795166 24.87492371 C9.43545621 28.46526792 9.48477027 32.05567463 9.53242874 35.64613724 C9.56239165 37.86696916 9.59421983 40.08776647 9.62667847 42.30856323 C9.98940571 67.20617717 10.13138384 92.09972985 10 117 C12.98216995 116.70151786 15.96381353 116.39880524 18.9453125 116.09375 C20.19308472 115.9695166 20.19308472 115.9695166 21.46606445 115.84277344 C49.83328937 112.91917029 90.31719663 102.91614246 110.59765625 81.296875 C113.21606539 78.87539357 116.56303531 78.91701494 120 79 C122.5 79.875 122.5 79.875 124 82 C125.90497982 124.32368202 101.36756576 170.53511723 73.5 201.25 C61.58992819 214.05467637 45.89348298 227.93801361 28 231 C28.23783203 231.93585938 28.23783203 231.93585938 28.48046875 232.890625 C35.20822195 273.15597498 16.9351732 319.55989128 -5.7199707 352.21630859 C-15.13337373 365.38116061 -26.64723232 377.32001028 -41 385 C-42.01126953 385.56074219 -42.01126953 385.56074219 -43.04296875 386.1328125 C-46.31534601 387.58284793 -49.54105636 387.65069237 -53 387 C-56 385 -56 385 -58 382 C-58.7382701 376.46297423 -57.65625353 372.50859993 -55.80078125 367.3203125 C-46.90098485 341.53260977 -56.62458259 310.54363054 -68 287 C-70.97180355 281.7167937 -74.33671301 276.82185666 -78 272 C-81.54071038 272.74843109 -84.15344198 274.21681623 -87.22387695 276.13500977 C-112.58327676 291.94943384 -141.9272783 300.87394031 -171 307 C-171.7420166 307.16226074 -172.4840332 307.32452148 -173.24853516 307.49169922 C-194.78077111 312.17094045 -194.78077111 312.17094045 -201.6875 308.6171875 C-204.50388057 306.64762406 -206.19629772 304.93936667 -208 302 C-208.96847313 295.13264508 -206.13355995 290.73577077 -202.8125 285 C-202.27222168 284.03940674 -201.73194336 283.07881348 -201.17529297 282.08911133 C-199.46338639 279.05172249 -197.73198736 276.02597285 -196 273 C-194.93191405 271.10902068 -193.86547193 269.21711181 -192.80078125 267.32421875 C-190.65816243 263.51805548 -188.507958 259.71634328 -186.3515625 255.91796875 C-182.87698228 249.79205735 -179.43662217 243.64726445 -176 237.5 C-171.28691723 229.07421876 -166.56017862 220.65634169 -161.8125 212.25 C-161.27173828 211.29158203 -160.73097656 210.33316406 -160.17382812 209.34570312 C-159.66916016 208.45302734 -159.16449219 207.56035156 -158.64453125 206.640625 C-158.20471924 205.86235352 -157.76490723 205.08408203 -157.31176758 204.28222656 C-156 202 -156 202 -154.2097168 199.45996094 C-152.73587009 197.12725969 -152.73587009 197.12725969 -153.50244141 194.94384766 C-155.39778749 192.48366743 -157.49995913 190.79572563 -159.9609375 188.8984375 C-165.90598535 184.15906939 -171.2768523 179.02075732 -176.625 173.625 C-177.5015625 172.75617188 -178.378125 171.88734375 -179.28125 170.9921875 C-185.28338777 164.97223923 -190.69301833 158.63406053 -196 152 C-196.88675043 150.94892686 -197.77859538 149.9020854 -198.6796875 148.86328125 C-230.10338916 112.35140014 -230.10338916 112.35140014 -229 92 C-227.75 89 -227.75 89 -226 87 C-218.39904771 84.46634924 -210.9154308 86.21301315 -203.5 88.5625 C-201.65680194 89.11512551 -199.81302316 89.66581684 -197.96875 90.21484375 C-197.00195312 90.50601074 -196.03515625 90.79717773 -195.0390625 91.09716797 C-162.39156934 100.79594928 -128.27533942 107.87415105 -94 106 C-92.77667969 105.99742187 -91.55335938 105.99484375 -90.29296875 105.9921875 C-86.67413401 104.90181499 -86.38070764 104.63121655 -84.5859375 101.5546875 C-83.82499002 100.0063425 -83.08970612 98.44522561 -82.375 96.875 C-81.52194897 95.13619097 -80.66499557 93.39929243 -79.8046875 91.6640625 C-79.35448242 90.74270508 -78.90427734 89.82134766 -78.44042969 88.87207031 C-75.95179888 83.90999356 -73.23413596 79.08002694 -70.5 74.25 C-69.94852295 73.27562988 -69.3970459 72.30125977 -68.82885742 71.29736328 C-25.30968928 -4.81458313 -25.30968928 -4.81458313 0 0 Z M-10.48046875 20.3203125 C-11.04378906 20.91585937 -11.60710937 21.51140625 -12.1875 22.125 C-14.48216249 24.50482522 -16.77148522 26.65445233 -19.375 28.6875 C-24.49771195 32.99835358 -28.09563695 38.61581068 -32 44 C-33.43713389 45.85445045 -34.87463508 47.7086163 -36.3125 49.5625 C-50.7082511 68.85628732 -65.10971927 91.47009433 -72.82421875 114.375 C-74.17430063 117.38913629 -75.10747716 118.44209735 -78 120 C-114.04200295 129.69763245 -161.01453459 117.27049096 -195.59448242 106.85864258 C-196.25764969 106.66247849 -196.92081696 106.46631439 -197.6040802 106.26420593 C-199.41203715 105.72833133 -201.21664127 105.1811818 -203.02099609 104.63330078 C-205.88303957 104.0248644 -207.30698923 103.97703509 -210 105 C-204.98068338 114.24538974 -199.5463349 122.72728652 -193 131 C-192.36449219 131.81726563 -191.72898437 132.63453125 -191.07421875 133.4765625 C-189.08043478 136.01110361 -187.04781767 138.5089159 -185 141 C-184.18660156 142.0003125 -183.37320313 143.000625 -182.53515625 144.03125 C-170.47622432 158.61803662 -157.01014752 172.44898112 -142 184 C-139.31720027 186.68279973 -138.98542054 189.38679134 -138 193 C-137.67 193.33 -137.34 193.66 -137 194 C-136.41423775 199.25623996 -138.03422465 202.56889059 -140.6875 206.9375 C-141.52268472 208.36686668 -142.35728595 209.79657441 -143.19140625 211.2265625 C-143.87227295 212.37946777 -143.87227295 212.37946777 -144.56689453 213.55566406 C-147.13982876 217.94411679 -149.62674603 222.38125433 -152.125 226.8125 C-152.67124023 227.77808838 -153.21748047 228.74367676 -153.78027344 229.73852539 C-158.66900845 238.38647579 -163.49674933 247.06778023 -168.31152344 255.75708008 C-171.53319865 261.56906584 -174.76659995 267.37393077 -178.02734375 273.1640625 C-178.67324463 274.31213379 -179.31914551 275.46020508 -179.98461914 276.64306641 C-181.21990296 278.83668031 -182.45728161 281.02911623 -183.69702148 283.22021484 C-184.24817627 284.19941895 -184.79933105 285.17862305 -185.3671875 286.1875 C-185.85300293 287.04730469 -186.33881836 287.90710938 -186.83935547 288.79296875 C-188.11388783 291.07220156 -188.11388783 291.07220156 -189 294 C-157.56866627 290.56784287 -107.52685061 280.030293 -85.5625 255.25 C-83 253 -83 253 -80 252.4375 C-76.23605814 253.1432391 -74.80364496 254.4014998 -72 257 C-71.48824219 257.36609375 -70.97648437 257.7321875 -70.44921875 258.109375 C-51.95330356 271.88564286 -42.35612188 304.34214872 -39 326 C-38.05059421 334.20877344 -37.72020915 342.43331988 -37.4375 350.6875 C-37.37272461 352.47317383 -37.37272461 352.47317383 -37.30664062 354.29492188 C-37.20176321 357.19653034 -37.09959804 360.09820635 -37 363 C-9.11003206 339.6209913 6.8558567 302.53415909 12 267 C12.185625 265.74316406 12.37125 264.48632812 12.5625 263.19140625 C13.14323441 258.40005877 13.14831244 253.63333761 13.125 248.8125 C13.1252417 247.89210938 13.1254834 246.97171875 13.12573242 246.0234375 C13.09795275 239.80950643 12.74597028 233.75759485 11.92578125 227.59375 C12.02235468 224.21876272 12.90346437 222.62518793 15 220 C17.13671875 218.91796875 17.13671875 218.91796875 19.6875 218.1875 C31.09462289 214.43057241 41.99675269 209.00823602 51 201 C51.91910156 200.22269531 52.83820313 199.44539062 53.78515625 198.64453125 C81.53506226 174.70485724 96.66609772 139.61947358 106 105 C101.76366008 106.29914424 98.07588068 107.95109432 94.1875 110.0625 C83.62068924 115.5468205 72.249521 119.19128461 61 123 C60.21189941 123.27118652 59.42379883 123.54237305 58.61181641 123.82177734 C42.22700627 129.38635876 20.27032016 135.38674975 3 132 C-0.73300693 129.75369423 -3.35345944 127.05208554 -5 123 C-5.25891972 121.01247692 -5.25891972 121.01247692 -5.27174377 118.8835907 C-5.2814621 118.07203522 -5.29118042 117.26047974 -5.30119324 116.42433167 C-5.30178238 115.54268845 -5.30237152 114.66104523 -5.30297852 113.75268555 C-5.31141785 112.81724915 -5.31985718 111.88181274 -5.32855225 110.91802979 C-5.35435047 107.82425427 -5.36647824 104.73057434 -5.37890625 101.63671875 C-5.39508322 99.48443346 -5.41226343 97.33215549 -5.43040466 95.17988586 C-5.47612124 89.5092407 -5.51090238 83.83858564 -5.54260254 78.16784668 C-5.59443378 69.10183125 -5.65981286 60.03592455 -5.73081779 50.97004128 C-5.75358333 47.80659043 -5.76990156 44.64315312 -5.78553772 41.47966003 C-5.79895259 39.53160457 -5.81256809 37.58355048 -5.82641602 35.63549805 C-5.83033607 34.32214226 -5.83033607 34.32214226 -5.83433533 32.98225403 C-5.87438991 28.22102161 -6.2072035 23.69660889 -7 19 C-9.08184049 18.77813827 -9.08184049 18.77813827 -10.48046875 20.3203125 Z " fill="#86A38B" transform="translate(1115,725)"/>
<path d="M0 0 C1.10996463 3.32989389 0.92393626 4.01122642 -0.1171875 7.21875 C-0.52565918 8.47896973 -0.52565918 8.47896973 -0.94238281 9.76464844 C-1.40402832 11.11864746 -1.40402832 11.11864746 -1.875 12.5 C-2.19307617 13.43618164 -2.51115234 14.37236328 -2.83886719 15.33691406 C-10.57517467 37.47155659 -22.04491659 60.41916661 -41 75 C-39.7624618 70.99553387 -38.3039513 67.46583753 -36.234375 63.82421875 C-35.68112549 62.84404785 -35.12787598 61.86387695 -34.55786133 60.85400391 C-33.66296997 59.28658447 -33.66296997 59.28658447 -32.75 57.6875 C-31.47767203 55.43891103 -30.20554224 53.1902099 -28.93359375 50.94140625 C-28.27460419 49.78009515 -27.61558719 48.61879961 -26.95654297 47.45751953 C-24.47525368 43.07269061 -22.02120086 38.67297397 -19.56787109 34.27246094 C-13.15906062 22.78116962 -6.63558262 11.36174249 0 0 Z " fill="#D76E5E" transform="translate(968,943)"/>
<path d="M0 0 C0.33 0 0.66 0 1 0 C1.60808255 14.62359623 2.06762371 29.2314075 2.2109375 43.8671875 C2.2252179 45.18277649 2.23949829 46.49836548 2.25421143 47.8538208 C2.31173145 53.2436697 2.36863694 58.63338211 2.40136719 64.0234375 C2.41827333 66.74201744 2.44291352 69.46031304 2.47622681 72.17874146 C2.50691711 74.6983814 2.52655122 77.21818877 2.53329468 79.73800659 C2.65030598 87.8299741 2.65030598 87.8299741 6 95 C3.69 95 1.38 95 -1 95 C-4.45560382 62.76301509 -4.59187438 32.1278551 0 0 Z " fill="#D86D5D" transform="translate(1107,759)"/>
<path d="M0 0 C0.33 0 0.66 0 1 0 C1.34077314 3.62433988 1.6712218 7.24955391 2 10.875 C2.14308594 12.39480469 2.14308594 12.39480469 2.2890625 13.9453125 C2.86095879 20.31787113 3.12770164 26.60250235 3 33 C0.15218153 30.15218153 0.04037374 28.04294496 -0.11352539 24.06738281 C-0.10828857 22.95717773 -0.10305176 21.84697266 -0.09765625 20.703125 C-0.09443359 19.49785156 -0.09121094 18.29257812 -0.08789062 17.05078125 C-0.07951172 15.79652344 -0.07113281 14.54226563 -0.0625 13.25 C-0.05798828 11.98027344 -0.05347656 10.71054687 -0.04882812 9.40234375 C-0.03704556 6.26818164 -0.02059416 3.13411459 0 0 Z " fill="#BE9C78" transform="translate(1103,821)"/>
</svg>
