<svg width="110" height="110" viewBox="0 0 110 110" fill="none" xmlns="http://www.w3.org/2000/svg">
<g filter="url(#filter0_d_66_383)">
<ellipse cx="54.586" cy="54.5833" rx="32.0849" ry="32.0833" fill="#DCDDC9"/>
<g filter="url(#filter1_i_66_383)">
<ellipse cx="55.0025" cy="55" rx="20.001" ry="20" fill="#C1C2A4"/>
</g>
<path d="M44.4309 15.5688C44.7014 12.4691 47.2967 10.0905 50.4084 10.0905L59.6482 10.0905C62.7361 10.0905 65.3198 12.4341 65.6199 15.5072L66.5339 24.8661C66.605 25.594 66.5131 26.3285 66.265 27.0164V27.0164C65.5605 28.9696 63.7069 30.2715 61.6304 30.2715L48.4456 30.2715C46.3378 30.2715 44.4707 28.9116 43.8241 26.9055V26.9055C43.6255 26.2891 43.5522 25.6392 43.6085 24.9941L44.4309 15.5688Z" fill="#DCDDC9"/>
<path d="M65.569 94.4312C65.2985 97.5309 62.7032 99.9095 59.5915 99.9095L50.3517 99.9095C47.2638 99.9095 44.6801 97.566 44.38 94.4928L43.466 85.1339C43.3949 84.406 43.4868 83.6715 43.7349 82.9836V82.9836C44.4394 81.0304 46.293 79.7285 48.3694 79.7285L61.5543 79.7285C63.6621 79.7285 65.5292 81.0884 66.1757 83.0945V83.0945C66.3744 83.7109 66.4477 84.3608 66.3914 85.0059L65.569 94.4312Z" fill="#DCDDC9"/>
<path d="M94.2856 44.1249C97.4469 44.3237 99.9091 46.9455 99.9091 50.1129L99.9091 59.2171C99.9091 62.3049 97.5654 64.8884 94.4921 65.1885L85.1328 66.1025C84.4049 66.1736 83.6703 66.0817 82.9823 65.8336V65.8336C81.029 65.1291 79.7271 63.2756 79.7271 61.1993L79.7271 48.2053C79.7271 46.0232 81.2317 44.1291 83.3574 43.6353V43.6353C83.8016 43.5322 84.2584 43.4943 84.7135 43.5229L94.2856 44.1249Z" fill="#DCDDC9"/>
<path d="M15.5695 65.9995C12.4696 65.729 10.0909 63.1338 10.0909 60.0223L10.0909 50.783C10.0909 47.6952 12.4346 45.1116 15.5079 44.8115L24.8672 43.8976C25.5951 43.8265 26.3297 43.9184 27.0177 44.1665V44.1665C28.971 44.871 30.2729 46.7244 30.2729 48.8008L30.2729 61.985C30.2729 64.0927 28.9129 65.9597 26.9067 66.6062V66.6062C26.2903 66.8049 25.6404 66.8782 24.9953 66.8219L15.5695 65.9995Z" fill="#DCDDC9"/>
<path d="M75.6437 19.372C78.0421 17.5769 81.397 17.8259 83.504 19.9553L90.0692 26.5902C92.2932 28.8378 92.3912 32.4257 90.2933 34.7914L83.7279 42.1946C83.4097 42.5535 83.035 42.858 82.6187 43.0963V43.0963C80.8839 44.0891 78.6982 43.7913 77.2923 42.3704L67.9452 32.9241C66.443 31.4059 65.9587 29.1538 66.7042 27.1524V27.1524C67.0716 26.1662 67.7148 25.3066 68.5573 24.6761L75.6437 19.372Z" fill="#DCDDC9"/>
<path d="M34.4025 90.2466C32.0088 92.2345 28.4927 92.0627 26.3042 89.8509L19.8055 83.2832C17.6335 81.0882 17.4823 77.6031 19.4559 75.2282L25.4659 67.9962C25.9333 67.4337 26.5201 66.9823 27.1837 66.6749V66.6749C29.0677 65.8019 31.2968 66.2038 32.7573 67.6797L42.0308 77.0517C43.5133 78.5499 43.8598 80.8336 42.8885 82.7042V82.7042C42.59 83.2789 42.1797 83.788 41.6815 84.2018L34.4025 90.2466Z" fill="#DCDDC9"/>
<path d="M90.5525 75.291C92.5405 77.6847 92.3687 81.2011 90.1568 83.3897L83.5887 89.8881C81.3937 92.0598 77.9089 92.2111 75.5341 90.2377L68.3012 84.2275C67.7388 83.7602 67.2874 83.1734 66.98 82.5099V82.5099C66.1069 80.626 66.5088 78.3969 67.9848 76.9366L77.3572 67.6635C78.8556 66.181 81.1393 65.8345 83.01 66.8058V66.8058C83.5847 67.1043 84.094 67.5147 84.5077 68.0129L90.5525 75.291Z" fill="#DCDDC9"/>
<path d="M19.0578 34.6616C17.2667 32.2632 17.5174 28.9116 19.6452 26.8063L26.581 19.944C28.7035 17.844 32.0473 17.6242 34.4264 19.4284L41.7509 24.9828C42.6339 25.6524 43.2796 26.5867 43.5938 27.6494V27.6494C44.1364 29.4846 43.6261 31.4695 42.2657 32.8155L32.2671 42.7082C30.9488 44.0125 29.0236 44.4928 27.2472 43.9605V43.9605C26.2055 43.6483 25.2918 43.0093 24.6411 42.138L19.0578 34.6616Z" fill="#DCDDC9"/>
</g>
<g filter="url(#filter2_d_66_383)">
<circle cx="55" cy="54" r="25" fill="#BCC595"/>
<path d="M55 27L58.8858 37.5404H71.4606L61.2874 44.0548L65.1732 54.5952L55 48.0809L44.8268 54.5952L48.7126 44.0548L38.5394 37.5404H51.1142L55 27Z" fill="#789B8A"/>
</g>
<defs>
<filter id="filter0_d_66_383" x="6.09094" y="10.0905" width="97.8181" height="97.819" filterUnits="userSpaceOnUse" color-interpolation-filters="sRGB">
<feFlood flood-opacity="0" result="BackgroundImageFix"/>
<feColorMatrix in="SourceAlpha" type="matrix" values="0 0 0 0 0 0 0 0 0 0 0 0 0 0 0 0 0 0 127 0" result="hardAlpha"/>
<feOffset dy="4"/>
<feGaussianBlur stdDeviation="2"/>
<feComposite in2="hardAlpha" operator="out"/>
<feColorMatrix type="matrix" values="0 0 0 0 0 0 0 0 0 0 0 0 0 0 0 0 0 0 0.25 0"/>
<feBlend mode="normal" in2="BackgroundImageFix" result="effect1_dropShadow_66_383"/>
<feBlend mode="normal" in="SourceGraphic" in2="effect1_dropShadow_66_383" result="shape"/>
</filter>
<filter id="filter1_i_66_383" x="35.0016" y="35" width="40.002" height="44" filterUnits="userSpaceOnUse" color-interpolation-filters="sRGB">
<feFlood flood-opacity="0" result="BackgroundImageFix"/>
<feBlend mode="normal" in="SourceGraphic" in2="BackgroundImageFix" result="shape"/>
<feColorMatrix in="SourceAlpha" type="matrix" values="0 0 0 0 0 0 0 0 0 0 0 0 0 0 0 0 0 0 127 0" result="hardAlpha"/>
<feOffset dy="4"/>
<feGaussianBlur stdDeviation="2"/>
<feComposite in2="hardAlpha" operator="arithmetic" k2="-1" k3="1"/>
<feColorMatrix type="matrix" values="0 0 0 0 0 0 0 0 0 0 0 0 0 0 0 0 0 0 0.25 0"/>
<feBlend mode="normal" in2="shape" result="effect1_innerShadow_66_383"/>
</filter>
<filter id="filter2_d_66_383" x="26" y="27" width="58" height="60" filterUnits="userSpaceOnUse" color-interpolation-filters="sRGB">
<feFlood flood-opacity="0" result="BackgroundImageFix"/>
<feColorMatrix in="SourceAlpha" type="matrix" values="0 0 0 0 0 0 0 0 0 0 0 0 0 0 0 0 0 0 127 0" result="hardAlpha"/>
<feOffset dy="4"/>
<feGaussianBlur stdDeviation="2"/>
<feComposite in2="hardAlpha" operator="out"/>
<feColorMatrix type="matrix" values="0 0 0 0 0 0 0 0 0 0 0 0 0 0 0 0 0 0 0.25 0"/>
<feBlend mode="normal" in2="BackgroundImageFix" result="effect1_dropShadow_66_383"/>
<feBlend mode="normal" in="SourceGraphic" in2="effect1_dropShadow_66_383" result="shape"/>
</filter>
</defs>
</svg>
